<?xml version="1.0" encoding="UTF-8"?>
<svg width="483.1" height="120.5" version="1.1" viewBox="0 0 483.1 120.5" xml:space="preserve" xmlns="http://www.w3.org/2000/svg">
<title>Engine Alliance logo</title>
              <style type="text/css">
                .st0{fill:#0033a0;}
                .st1{fill:#898d8d;}
              </style>
              <g transform="translate(-35.26 -30.5)">
                
                    <polygon class="st0" points="216.1 102.9 202.6 102.9 200.5 110.8 213.2 110.8 211.2 118.2 198.5 118.2 196.1 127.2 210.2 127.2 208.2 134.7 184.8 134.7 195.3 95.4 218.1 95.4"/>
                    
                      <path class="st0" d="m218.5 104.9h8.6l-0.9 3.5h0.1c2-2.6 5-4.3 8.3-4.3 5.1 0 7.1 2.5 5.6 8.3l-5.9 22.3h-8.9l5.4-20.3c0.6-2.2 0-3.4-1.7-3.4s-3.6 1.3-4.3 4.2l-5.2 19.5h-8.9z"/>
                      <path class="st0" d="m260 108.9h-0.1c-0.3-2.7-1.8-4.8-5.8-4.8-7.8 0-10.9 8.2-12.8 15.3-2.2 8.2-1.9 14.6 4.5 14.6 3 0 6.1-1 8.2-4.4h0.1l-0.5 1.8c-1.5 5.7-2.6 7.6-5.6 7.6-0.9 0-1.6-0.2-2-0.6s-0.5-1-0.5-1.8h-8.3c-1.2 4.5 0.3 8.3 9 8.3 9.4 0 13.6-4.5 15.4-11.2l7.6-28.8h-8.3zm-9.7 10.4c1.3-4.9 2.7-8.3 5.6-8.3 2.6 0 2.6 2.6 1.1 8.1-1.8 6.7-3.2 8.5-5.6 8.5-2.5-0.1-2.8-2.1-1.1-8.3"/>
                    
                    <path class="st0" d="m275.7 94.9h8.9l-1.8 6.8h-8.9zm-2.7 10h8.9l-7.9 29.8h-8.9z"/>
                    
                      <path class="st0" d="m285.7 104.9h8.6l-0.9 3.5h0.1c2-2.6 5-4.3 8.3-4.3 5.1 0 7.1 2.5 5.6 8.3l-5.9 22.3h-8.9l5.4-20.3c0.6-2.2 0-3.4-1.7-3.4s-3.6 1.3-4.3 4.2l-5.2 19.5h-8.9z"/>
                      <path class="st0" d="m331.5 121.3c2.7-10.1 3.8-17.1-7.3-17.1-9.7 0-13.8 6.2-16 14.6-2.4 8.9-3.6 16.8 7.7 16.8 7.4 0 12.4-3.6 14.5-11h-8.3c-1.2 3.7-2.4 5.5-4.7 5.5-2.6 0-2.7-2.3-1.4-6.9l0.5-1.8h15zm-13.7-5.2c1.1-4 2.2-6.5 5.1-6.5 2.5 0 2.4 2.3 1.3 6.5z"/>
                    
                  
                  
                    <path class="st0" d="m340.5 134.7h9.6l3.4-7.5h9.4l-0.6 7.5h9.6l0.6-39.4h-11.5zm22.9-14.6h-6.7l7.9-17.5h0.1z"/>
                    <polygon class="st0" points="382.3 134.7 373.3 134.7 383.8 95.4 392.7 95.4"/>
                    <polygon class="st0" points="395.1 134.7 386.2 134.7 396.6 95.4 405.6 95.4"/>
                    <path class="st0" d="m409.6 94.9h8.9l-1.8 6.8h-8.9zm-2.6 10h8.9l-7.9 29.8h-9z"/>
                    <path class="st0" d="m425 114.1c0.7-2.6 1.9-4.1 4.3-4.1 2 0 2.5 1.2 2 3-0.6 2.3-1.2 2.7-4.1 3.4-2.7 0.7-6.1 1.2-8.7 2.4-2.5 1.2-4.7 4.1-5.7 7.6-1.7 6.5 0.5 9.1 5.5 9.1 3 0 6.2-1.5 8.1-4.2h0.1c-0.3 1.2-0.5 2.4-0.4 3.4h8.6c-0.7-1.3 0.1-4.2 0.7-6.5l4.1-15.3c1.7-6.3-0.9-8.8-8.3-8.8-3.7 0-6.4 0.5-8.9 1.9s-4.4 3.9-5.5 8h8.2zm-3.2 11.4c0.4-1.7 1.1-2.6 2.3-3.3 1-0.7 2.2-0.7 5.4-2.2-0.3 1.2-0.8 2.8-1.4 5.2-0.8 3-2.8 4.1-4.7 4.1-1.7 0-2.3-1.4-1.6-3.8"/>
                    <path class="st0" d="m445.7 104.9h8.6l-0.9 3.5h0.1c2-2.6 5-4.3 8.3-4.3 5.1 0 7.1 2.5 5.6 8.3l-5.9 22.3h-8.9l5.4-20.3c0.6-2.2 0-3.4-1.7-3.4s-3.6 1.3-4.3 4.2l-5.2 19.5h-8.9z"/>
                    <path class="st0" d="m484.6 116.2c1.2-4.4 0.6-6.2-1.7-6.2-3 0-4.4 3.7-6 9.9-1.8 6.7-2.2 9.8 0.8 9.8 2.6 0 3.7-1.8 5.2-7.1h8.3c-2.5 9.2-7.1 12.9-15.2 12.9-11.3 0-10.1-7.9-7.7-16.8 2.2-8.4 6.3-14.6 16-14.6 9.4 0 10.5 4.9 8.6 12h-8.3z"/>
                    <path class="st0" d="m516.6 121.3c2.7-10.1 3.8-17.1-7.3-17.1-9.7 0-13.8 6.2-16 14.6-2.4 8.9-3.6 16.8 7.7 16.8 7.4 0 12.4-3.6 14.5-11h-8.3c-1.2 3.7-2.4 5.5-4.7 5.5-2.6 0-2.7-2.3-1.4-6.9l0.5-1.8h15zm-13.7-5.2c1.1-4 2.2-6.5 5.1-6.5 2.5 0 2.4 2.3 1.3 6.5z"/>
                  
                
                
                  <path class="st1" d="m191.6 38.2c-3.3-5.1-9.3-7.7-17.7-7.7-8.9 0-20.4 2.8-34.2 8.3l0.2 0.6c0.1 0 6.1-1.8 13.3-1.8 7.1 0 16.5 1.8 21.2 10.1 6.5 11.6 1.9 26.9-13.7 45.4l0.5 0.5c24.4-20.6 37.5-44.4 30.4-55.4z"/>
                  <path class="st1" d="m100.1 134.7c-0.1-0.2-0.3-0.2-0.4-0.2-9.8 3.8-19.2 5.9-27.1 5.9-9.7 0-16.9-2.9-20.9-8.4-7.1-13.6 2.1-33.3 25.9-55.5 0.1-0.1 0.1-0.3 0-0.5-0.1-0.1-0.3-0.1-0.5 0-26.8 23.2-49.3 52.8-39.5 66.6 3.2 4.4 8.7 6.7 16.6 6.7 11.5 0 27.3-4.9 45.7-14.1 0.2-0.1 0.3-0.3 0.2-0.5z"/>
                  
                    <path class="st0" d="m132 56.9 6.1-17.6h-46.8l-10.3 33.3c7.8-6.4 15.3-10.5 25.9-15.7 0 0-24.9 18.6-34 38l-9.4 27.3 44.4 0.2 6.6-17.9-24.7 0.1 6.2-16.5h24.4l6.3-17h-24.3l5.3-14.2z"/>
                    <path class="st0" d="m126.3 121.6s31.6-27.3 33.6-50.5h-28.5l-29.9 79.9h19.8l6-19.2h12.6l-1.5 19.2h18.8l1.4-55.3c-8.8 8.4-17.4 16.1-32.3 25.9"/>
                  
                
              </g>
            </svg>
