<?xml version="1.0" encoding="UTF-8" standalone="no"?>
<svg
   xmlns:dc="http://purl.org/dc/elements/1.1/"
   xmlns:cc="http://creativecommons.org/ns#"
   xmlns:rdf="http://www.w3.org/1999/02/22-rdf-syntax-ns#"
   xmlns:svg="http://www.w3.org/2000/svg"
   xmlns="http://www.w3.org/2000/svg"
   xmlns:sodipodi="http://sodipodi.sourceforge.net/DTD/sodipodi-0.dtd"
   xmlns:inkscape="http://www.inkscape.org/namespaces/inkscape"
   width="98.614426"
   height="85.927094"
   viewBox="0 0 26.091733 22.734877"
   version="1.1"
   id="svg16"
   inkscape:version="1.0.1 (c497b03c, 2020-09-10)"
   sodipodi:docname="PW.svg">
  <defs
     id="defs10" />
  <sodipodi:namedview
     id="base"
     pagecolor="#00ffff"
     bordercolor="#666666"
     borderopacity="1.0"
     inkscape:pageopacity="0"
     inkscape:pageshadow="2"
     inkscape:zoom="0.35"
     inkscape:cx="323.59293"
     inkscape:cy="117.24926"
     inkscape:document-units="px"
     inkscape:current-layer="layer1"
     inkscape:document-rotation="0"
     showgrid="false"
     units="px"
     lock-margins="true"
     fit-margin-top="0.5"
     fit-margin-left="0.5"
     fit-margin-right="0.5"
     fit-margin-bottom="0.5"
     inkscape:window-width="1440"
     inkscape:window-height="872"
     inkscape:window-x="0"
     inkscape:window-y="28"
     inkscape:window-maximized="0" />
  <metadata
     id="metadata13">
    <rdf:RDF>
      <cc:Work
         rdf:about="">
        <dc:format>image/svg+xml</dc:format>
        <dc:type
           rdf:resource="http://purl.org/dc/dcmitype/StillImage" />
        <dc:title></dc:title>
      </cc:Work>
    </rdf:RDF>
  </metadata>
  <g
     inkscape:label="Layer 1"
     inkscape:groupmode="layer"
     id="layer1"
     transform="translate(-20.216038,-117.14447)">
    <g
       id="g8214"
       transform="translate(-90.13193,83.314876)">
      <path
         style="fill:#0f1e38;fill-opacity:1;fill-rule:nonzero;stroke:none;stroke-width:0.352778"
         d="m 135.9413,45.148862 c 0,6.128136 -4.96782,11.095964 -11.09734,11.095964 -6.12813,0 -11.09596,-4.967828 -11.09596,-11.095964 0,-6.129514 4.96783,-11.097342 11.09596,-11.097342 6.12952,0 11.09734,4.967828 11.09734,11.097342"
         id="path954" />
      <path
         style="fill:#2bb8f0;fill-opacity:1;fill-rule:nonzero;stroke:none;stroke-width:0.352778"
         d="m 117.47008,45.148862 c 0,-4.073481 3.30178,-7.375261 7.37388,-7.375261 4.07348,0 7.37526,3.30178 7.37526,7.375261 0,4.072103 -3.30178,7.373882 -7.37526,7.373882 -4.0721,0 -7.37388,-3.301779 -7.37388,-7.373882"
         id="path956" />
      <path
         style="fill:#e3e3dc;fill-opacity:1;fill-rule:nonzero;stroke:none;stroke-width:0.352778"
         d="m 135.7222,45.197093 c 0,6.027539 -4.90444,10.931977 -10.93336,10.931977 -6.02754,0 -10.93198,-4.904438 -10.93198,-10.931977 0,-0.36518 0.0179,-0.724848 0.0524,-1.080382 h 0.24529 c 0.15434,0.380339 0.50712,0.558106 1.10657,0.558106 0.37896,0 0.68626,-0.02894 0.97013,-0.07579 0.12678,0.314192 0.69454,0.401009 1.05283,0.434082 -0.001,0.05374 -0.003,0.108865 -0.003,0.163986 0,0.683507 0.0923,1.346344 0.26459,1.976107 -0.23151,0.110243 -0.38861,0.37207 -0.38861,0.686263 0,0.21084 0.0579,0.378961 0.17363,0.501606 0.0124,0.112999 0.0661,0.21084 0.1571,0.283876 0.0207,0.21773 0.26596,0.51263 0.76343,0.51263 0.0537,0 0.10473,-0.0055 0.15159,-0.01654 1.32567,2.137337 3.69176,3.563607 6.38583,3.563607 2.85943,0 5.34954,-1.606792 6.61734,-3.964616 0.0661,-0.0055 0.13091,-0.0124 0.19292,-0.01791 0.073,-0.0083 0.14332,-0.01516 0.21222,-0.01929 0.0937,-0.0069 0.19017,-0.02618 0.28387,-0.04685 0.11438,-0.02343 0.22325,-0.04548 0.3266,-0.04548 0.17501,0 0.26458,0.08957 0.35829,0.184657 0.0896,0.08957 0.18328,0.181901 0.34175,0.181901 0.011,0 0.0221,-0.0014 0.0331,-0.0028 0.0786,0.08544 0.23013,0.09233 0.33624,-0.0124 0.23289,-0.225998 0.46991,-0.50574 0.46991,-0.873676 0,-0.43546 -0.29628,-0.679373 -0.7152,-0.972895 l -0.011,-0.02205 c -0.0386,-0.08268 -0.0882,-0.184657 -0.27698,-0.347265 -0.23289,-0.201194 -0.46578,-0.329352 -0.74139,-0.446485 0.0524,-0.359668 0.0799,-0.728982 0.0799,-1.10243 0,-0.176389 -0.006,-0.3514 -0.0179,-0.523655 0.49196,-0.329351 0.97841,-0.654568 1.0859,-0.73036 0.43684,-0.30868 0.50711,-0.514008 0.66008,-0.966005 0.0262,-0.07717 0.0551,-0.162608 0.0882,-0.256315 0.0275,-0.07717 0.0275,-0.152962 0.003,-0.209462 0.31695,-0.381716 0.65733,-0.712445 0.9729,-0.982541 0.41066,1.146528 0.6339,2.38125 0.6339,3.668338 m -5.53152,-3.621489 c -0.0813,-0.06477 -0.17777,-0.136426 -0.37758,-0.136426 -0.10473,0 -0.22876,0.09095 -0.38861,0.285254 -0.0413,-0.0041 -0.10748,-0.01102 -0.18879,-0.01102 -0.36794,0 -0.59531,0.09371 -0.64768,0.267339 -0.17087,0.0124 -0.4892,0.05374 -0.62149,0.205328 -0.0331,0.03721 -0.0524,0.07855 -0.0593,0.122645 -0.20533,0.01929 -0.65457,0.09233 -0.65457,0.3514 0,0.01102 10e-4,0.02343 0.004,0.03721 -0.13367,0.03169 -0.33624,0.09371 -0.39963,0.227376 -0.14194,0.03721 -0.47129,0.146072 -0.47129,0.356912 0,0.0028 0,0.0041 0,0.0069 -0.0372,0.0083 -0.0744,0.01929 -0.10749,0.03169 -0.16261,-0.186036 -0.63941,-0.774458 -0.63941,-0.774458 -1.418,-1.73495 -1.8824,-2.013314 -5.14835,-2.013314 -0.39274,0 -0.80753,0.01378 -1.25126,0.03445 1.32705,-1.588878 3.32245,-2.601736 5.54936,-2.601736 2.47358,0 4.66191,1.248503 5.96553,3.14744 -0.24943,0.0248 -0.46853,0.282498 -0.56362,0.46302 m -11.25857,7.686698 c 0.113,0 0.31006,-0.03583 0.44097,-0.09509 0.2012,0.01516 0.31695,-0.03307 0.46578,-0.09371 0.15158,-0.06201 0.35553,-0.144694 0.74965,-0.201194 -0.0179,0.04823 -0.0276,0.09646 -0.0276,0.144694 0,0.261828 0.23289,0.474045 0.51814,0.474045 0.0978,0 0.226,-0.01516 0.31006,-0.0248 0.0358,-0.0041 0.0634,-0.0069 0.073,-0.0069 h 0.0703 c 0.0854,0.0014 0.21084,0.0028 0.27836,0 0.0799,-0.0041 0.1378,-0.02618 0.19568,-0.04685 0.051,-0.01929 0.1006,-0.03859 0.16537,-0.04134 0.0634,0.05788 0.17501,0.06752 0.24942,0.06477 0.0827,-0.0014 0.16536,-0.0096 0.23013,-0.01791 0.0207,-0.0014 0.0386,-0.0041 0.0551,-0.0055 0.0386,0.06063 0.10198,0.09095 0.19017,0.09095 10e-4,0 0.003,0 0.004,0 0.0565,0 0.11438,-0.0124 0.16674,-0.02343 0.0427,-0.0096 0.0827,-0.01791 0.113,-0.01791 0.0744,0 0.16536,0.0028 0.27147,0.0055 0.13367,0.0028 0.28801,0.0069 0.44511,0.0069 0.46715,0 0.63803,-0.01791 0.86679,-0.08819 0.0469,-0.01378 0.11988,-0.02618 0.21359,-0.02067 0.14332,0 0.26045,0.01791 0.3955,0.03721 0.18879,0.02756 0.40376,0.05926 0.75792,0.05926 1.12723,0 1.74184,-0.115755 2.76159,-0.307303 0.14745,-0.02894 0.30454,-0.05788 0.47267,-0.08819 0.0524,-0.0096 0.16123,-0.03169 0.29765,-0.05926 0.38447,-0.07579 1.02802,-0.203949 1.25815,-0.23151 l 0.1571,-0.01103 c -1.24575,2.185568 -3.59806,3.662825 -6.28937,3.662825 -2.48322,0 -4.67844,-1.258149 -5.98068,-3.170866 0.0344,0.0041 0.0758,0.0055 0.12402,0.0055 m -1.3739,-4.065215 c 0,-0.05099 0,-0.100597 10e-4,-0.150206 h 0.0965 c 0.0482,0 0.0841,0 0.11438,-0.0014 -10e-4,0.06615 0.0193,0.125401 0.0593,0.177767 0.0937,0.11989 0.28387,0.181901 0.55259,0.181901 0.0854,0 0.15572,-0.0014 0.21635,-0.0041 0.0372,0.292144 0.34865,0.423057 0.65595,0.423057 0.0965,0 0.18603,-0.0083 0.27009,-0.02343 0.0744,0.332108 0.565,0.423058 0.82958,0.424436 h 0.003 c 0.11025,0 0.21498,-0.0248 0.29628,-0.05237 -10e-4,0.01378 -0.003,0.02756 -0.003,0.04134 0,0.05237 0.0221,0.09922 0.0758,0.15434 -0.1943,-0.07993 -0.4768,-0.144694 -0.63803,-0.144694 -0.20257,0 -0.36104,0.0689 -0.48507,0.209462 -0.12402,-0.03583 -0.23289,-0.05374 -0.32935,-0.05374 -0.21911,0 -0.3197,0.183279 -0.38034,0.299035 -0.0455,0 -0.0978,-0.0041 -0.15158,-0.0069 -0.0772,-0.0041 -0.15572,-0.0083 -0.21911,-0.0083 h -10e-4 c -0.21498,0 -0.44649,0.03445 -0.54984,0.27423 -0.0799,0.01929 -0.1378,0.05099 -0.17915,0.08957 -0.15296,-0.584288 -0.23426,-1.198893 -0.23426,-1.830035 m 14.46251,0 c 0,0.337619 -0.0234,0.671105 -0.0689,0.9977 -0.0441,-0.01791 -0.0896,-0.03445 -0.13505,-0.05236 -0.565,-0.208084 -0.8406,-0.276986 -1.08452,-0.33762 l -0.0248,-0.0069 c 0.0455,-0.07993 0.16123,-0.199817 0.42719,-0.369315 0.0813,-0.05099 0.45613,-0.299035 0.87781,-0.578776 0.006,0.115755 0.008,0.230132 0.008,0.347265 m -7.23195,-10.933355 c 4.13412,0 7.73906,2.306836 9.59666,5.699566 -0.12678,0.06477 -0.24805,0.139182 -0.35967,0.213596 0.0482,-0.07579 0.0799,-0.144694 0.0799,-0.206706 0,-0.101975 -0.0882,-0.203949 -0.25632,-0.203949 -0.26045,0 -0.54019,0.143316 -0.81442,0.413411 0.001,-0.01102 0.003,-0.02205 0.003,-0.03169 0,-0.04961 -0.0179,-0.09508 -0.051,-0.128158 -0.0345,-0.03445 -0.0827,-0.05374 -0.13781,-0.05374 -0.2756,0 -0.54156,0.152962 -0.74551,0.420301 -0.0221,-0.06752 -0.0854,-0.10473 -0.17915,-0.10473 -0.25356,0 -0.67248,0.257692 -0.89572,0.74414 -1.34773,-2.010558 -3.64216,-3.336231 -6.23976,-3.336231 -2.40192,0 -4.54477,1.134126 -5.91868,2.895259 -0.23013,0.01102 -0.46715,0.0248 -0.7152,0.03859 -0.99632,0.05512 -2.11529,0.117133 -3.35276,0.125401 1.70732,-3.817167 5.54102,-6.485049 9.98657,-6.485049 m 11.22137,6.060612 c -0.0813,-0.01791 -0.20533,-0.0441 -0.20533,-0.08268 0,-0.03721 0.0165,-0.0565 0.0496,-0.09371 0.0372,-0.04272 0.0896,-0.09508 0.0896,-0.177767 0,-0.225998 -0.44097,-0.267339 -0.64217,-0.267339 -0.21221,-0.0014 -0.42994,0.05237 -0.64078,0.13367 -1.90583,-3.496083 -5.61689,-5.874577 -9.87227,-5.874577 -4.61505,0 -8.59069,2.798795 -10.31737,6.788216 -1.50344,-0.0069 -2.72852,-0.336241 -3.45199,-0.931554 -0.073,-0.06063 -0.17914,-0.07441 -0.26596,-0.03307 -0.0896,0.04272 -0.14194,0.13367 -0.14194,0.250803 0,0.436838 0.7786,1.254015 1.72944,1.672938 -0.58291,0.09233 -1.09967,0.137805 -1.57647,0.137805 -0.17777,0 -0.28388,0.09233 -0.28388,0.248046 0,0.378961 0.67524,0.624252 1.03077,0.691775 0.1571,0.28801 0.49334,0.480936 0.97428,0.559484 0.13229,0.425814 0.55121,0.705556 1.12034,0.760677 -0.0344,0.35829 -0.0524,0.722092 -0.0524,1.090028 0,6.194282 5.04086,11.235146 11.23514,11.235146 6.19566,0 11.23515,-5.040864 11.23515,-11.235146 0,-1.360124 -0.24254,-2.663748 -0.68764,-3.872287 0.32935,-0.259071 0.6146,-0.439594 0.79237,-0.525032 0.0868,-0.04272 0.17914,-0.09508 0.17914,-0.242535 0,-0.179145 -0.15847,-0.201194 -0.29765,-0.232889 m -2.96416,10.405567 c -0.0965,0.0083 -0.20395,-0.01791 -0.31833,-0.07993 l -0.0303,-0.01653 0.12678,-0.223243 0.0289,0.01516 c 0.21911,0.111621 0.27974,0.01378 0.30041,-0.01791 0.073,-0.118511 -0.0413,-0.208084 -0.0951,-0.239778 -0.0813,-0.05099 -0.19706,-0.06615 -0.33073,-0.04272 l -0.30317,0.05099 c -0.20808,0.04272 -0.36518,0.02343 -0.49609,-0.05788 -0.1006,-0.06339 -0.16812,-0.14745 -0.19706,-0.243913 -0.0289,-0.10473 -0.01,-0.21773 0.0579,-0.325217 0.0882,-0.141938 0.26045,-0.275607 0.5774,-0.100597 l 0.0303,0.01654 -0.12402,0.212217 -0.0276,-0.01378 c -0.17363,-0.08268 -0.23151,-0.03996 -0.26734,0.01791 -0.0248,0.03858 -0.0317,0.07579 -0.0207,0.108865 0.011,0.03721 0.0427,0.07166 0.0923,0.103353 0.0813,0.05099 0.2012,0.03721 0.32798,0.01653 l 0.26734,-0.0441 c 0.22048,-0.04134 0.3886,-0.01791 0.54019,0.07717 0.11024,0.0689 0.18466,0.158475 0.21497,0.26045 0.0331,0.107486 0.0138,0.220486 -0.0537,0.327973 -0.0744,0.121267 -0.17777,0.187413 -0.30041,0.198437 m -0.61599,1.01837 -1.39871,-1.118967 0.46992,-0.587044 0.18603,0.148828 -0.30455,0.378961 0.39137,0.311436 0.24253,-0.303168 0.18741,0.148828 -0.24253,0.304547 0.44511,0.356911 0.30592,-0.381716 0.18879,0.151584 z m -1.0101,1.023883 -1.23886,-1.293978 0.19844,-0.188792 1.02113,0.504363 -0.74001,-0.77308 0.17501,-0.168121 1.23748,1.295356 -0.17501,0.166743 -1.11483,-0.56224 0.81304,0.85025 z m -0.62563,0.491959 -0.0207,-0.02756 -1.0666,-1.395953 0.2136,-0.162608 0.0207,0.02756 1.0666,1.395953 z m -0.98943,0.606337 c -0.0276,0.0014 -0.0551,-0.0014 -0.0813,-0.0055 -0.11025,-0.02067 -0.20533,-0.08957 -0.27286,-0.201193 l -0.514,-0.84336 c -0.13505,-0.221865 -0.0689,-0.464399 0.16261,-0.606337 0.21635,-0.132292 0.44924,-0.08957 0.56775,0.103353 l 0.11713,0.192925 -0.2136,0.129536 -0.10473,-0.170877 c -0.0262,-0.0441 -0.062,-0.07304 -0.10335,-0.08268 -0.0427,-0.0096 -0.0909,0.0014 -0.13918,0.03032 -0.13091,0.07993 -0.1006,0.191548 -0.0524,0.271474 l 0.50299,0.822689 c 0.0648,0.107487 0.15709,0.132292 0.25907,0.07028 0.10335,-0.06201 0.12264,-0.141938 0.0606,-0.242535 l -0.18328,-0.301791 -0.19292,0.118511 -0.11989,-0.194303 0.41341,-0.252181 0.31006,0.508496 c 0.062,0.100596 0.0799,0.208083 0.0524,0.310058 -0.0276,0.101975 -0.10059,0.192926 -0.21221,0.259072 -0.0868,0.05374 -0.17364,0.0813 -0.25632,0.08406 m -1.44418,0.733116 -0.70694,-1.645378 0.25081,-0.107486 0.77997,0.829578 -0.42306,-0.983919 0.22324,-0.09508 0.70693,1.645378 -0.22324,0.09508 -0.0165,-0.01791 -0.83096,-0.898481 0.4644,1.080382 z m -1.15342,0.3514 -0.008,-0.03307 -0.4768,-1.690853 0.72347,-0.20395 0.0648,0.228755 -0.46716,0.132291 0.13505,0.479558 0.37483,-0.104731 0.0648,0.230132 -0.37482,0.106109 0.15572,0.549837 0.46991,-0.132291 0.0648,0.234266 z m -1.74184,0.265961 -0.004,-0.03445 -0.17225,-1.748731 0.74965,-0.07441 0.0221,0.237023 -0.48231,0.04685 0.0482,0.497472 0.38723,-0.03859 0.0234,0.239778 -0.38723,0.03721 0.0565,0.569129 0.48644,-0.04685 0.0234,0.241157 z m -0.94258,0.01791 -0.0276,-1.790071 0.26596,-0.0041 0.0234,1.547537 0.4892,-0.0069 0.003,0.242535 z m -0.89848,-1.113455 0.11851,0.01378 c 0.0551,0.0069 0.1006,-0.0083 0.13643,-0.0441 0.0427,-0.04272 0.0689,-0.111622 0.0799,-0.206706 0.0124,-0.101975 0,-0.177767 -0.0345,-0.223242 -0.022,-0.02618 -0.0524,-0.04272 -0.0909,-0.04685 l -0.14883,-0.01791 z m 0.0565,0.808909 c 0.13229,0.0124 0.17914,-0.137804 0.19568,-0.270096 0.011,-0.09646 0.001,-0.170876 -0.0303,-0.220486 -0.0262,-0.04272 -0.0689,-0.0689 -0.12678,-0.07441 l -0.12264,-0.01516 -0.0661,0.563618 z m 0.062,0.239778 c -0.0165,0 -0.0331,-0.0014 -0.0482,-0.0028 l -0.45613,-0.05374 0.004,-0.03445 0.20533,-1.744597 0.44373,0.05237 c 0.12816,0.01516 0.22186,0.0689 0.27699,0.158474 0.0524,0.08544 0.0703,0.202572 0.0537,0.347266 -0.0221,0.194303 -0.10473,0.330729 -0.22324,0.380338 0.11575,0.07717 0.16674,0.227377 0.14193,0.429948 -0.0455,0.396875 -0.25218,0.468534 -0.39825,0.467155 m -1.25953,-0.985297 0.22462,0.05512 0.0358,-0.627007 z m 0.45062,0.880566 -0.2632,-0.06477 0.0262,-0.522276 -0.31557,-0.07855 -0.21635,0.476801 -0.24805,-0.06063 0.7841,-1.65778 0.31282,0.07717 z m -1.59301,-0.71658 c 0.0537,0.02067 0.1006,0.02067 0.14194,0.0028 0.0565,-0.0248 0.0841,-0.07993 0.0951,-0.111621 l 0.33762,-0.884701 c 0.0193,-0.04823 0.0455,-0.170876 -0.10748,-0.228754 l -0.14746,-0.0565 -0.46577,1.22232 z m 0.10887,0.268718 c -0.0579,-0.0014 -0.11852,-0.01378 -0.18191,-0.03721 l -0.4079,-0.155721 0.63804,-1.674316 0.41341,0.158474 c 0.2508,0.09509 0.35278,0.296278 0.26458,0.525033 l -0.34451,0.905371 c -0.0482,0.12678 -0.12953,0.214974 -0.23289,0.254937 -0.0469,0.01653 -0.0965,0.0248 -0.14882,0.02343 m -1.05972,-0.409277 -0.21084,-0.115756 0.2012,-1.233344 -0.56775,1.032151 -0.21498,-0.118511 0.0179,-0.03032 0.84749,-1.537891 0.2384,0.130914 -0.17501,1.125857 0.51539,-0.938444 0.21221,0.117133 -0.0165,0.03032 z m -1.16857,-0.680751 -0.6091,-0.446485 1.06109,-1.444184 0.60634,0.446485 -0.14056,0.191547 -0.39136,-0.28801 -0.29628,0.402387 0.31419,0.230132 -0.14194,0.192926 -0.31419,-0.228756 -0.33762,0.460265 0.39274,0.28801 z m -0.72209,-1.788694 0.0813,0.07717 c 0.0496,0.04548 0.1006,0.06063 0.15985,0.04548 0.0606,-0.01516 0.13092,-0.06477 0.20671,-0.144694 0.1819,-0.194304 0.1254,-0.289389 0.0675,-0.34451 l -0.0909,-0.08544 z m -0.63804,0.676617 -0.19568,-0.183279 0.0234,-0.0248 1.20303,-1.27882 0.3073,0.28801 c 0.10473,0.09784 0.15021,0.212218 0.13229,0.334864 -0.0152,0.110243 -0.0786,0.225998 -0.19155,0.344509 -0.24666,0.263205 -0.49747,0.300413 -0.70417,0.106109 l -0.0978,-0.09233 z m -0.51263,-0.522276 -0.47955,-0.581533 1.38217,-1.139637 0.4768,0.580154 -0.1819,0.151584 -0.31006,-0.374826 -0.38447,0.318326 0.24667,0.299035 -0.18466,0.152962 -0.24667,-0.299034 -0.44235,0.362424 0.31144,0.376204 z m -0.81855,-1.506196 c 0.091,0.144694 0.21773,0.07993 0.25494,0.0565 l 0.80201,-0.501606 c 0.0441,-0.02756 0.073,-0.06339 0.0841,-0.103353 0.011,-0.0441 0.001,-0.09371 -0.0317,-0.144693 l -0.0827,-0.133672 -1.1107,0.694532 z m 0.1254,0.362424 c -0.12402,-0.0096 -0.2384,-0.08544 -0.32384,-0.220486 l -0.23151,-0.372071 0.0289,-0.01791 1.48966,-0.931553 0.23427,0.374826 c 0.0661,0.106109 0.0951,0.213596 0.0813,0.312815 -0.0152,0.107487 -0.0785,0.199815 -0.18604,0.267339 l -0.82131,0.514006 c -0.0923,0.0565 -0.18465,0.07993 -0.27147,0.07304 m 14.43495,-10.816222 -0.18466,-0.217729 0.63666,-0.538813 0.61598,-1.015615 0.19293,0.228755 -0.41204,0.65319 0.70556,-0.307303 0.18052,0.213596 -1.10243,0.447863 z m -0.44097,-0.51263 -0.60083,-0.558105 1.33257,-1.43316 0.59944,0.556728 -0.17363,0.186035 -0.38861,-0.362424 -0.37758,0.405143 0.31144,0.290766 -0.17364,0.188791 -0.31281,-0.290766 -0.43133,0.463021 0.39137,0.36518 z m -0.90124,-0.80753 -0.21497,-0.144694 0.34589,-1.342209 -0.73037,1.083138 -0.21635,-0.146072 1.09416,-1.621951 0.24254,0.163986 -0.30592,1.227832 0.66421,-0.986675 0.21497,0.144694 z m -1.24299,-0.775836 -0.26045,-0.124023 0.74828,-1.531001 -0.32798,-0.155718 0.11162,-0.227376 0.9164,0.43546 -0.11162,0.228754 -0.32797,-0.157096 z m -0.75516,-0.329351 -0.27423,-0.09784 0.67524,-1.835546 0.27422,0.09784 z m -0.71796,-0.248047 -0.2825,-0.06063 0.18466,-0.844738 -0.3955,-0.08406 -0.18466,0.844737 -0.28525,-0.06063 0.41617,-1.908583 0.28525,0.06063 -0.17501,0.80064 0.3955,0.08406 0.17501,-0.80064 0.2825,0.05926 z m -1.47726,-0.265961 -0.26183,-0.0083 -0.15709,-1.282953 -0.23427,1.270551 -0.2632,-0.0083 -0.226,-1.977485 0.28663,0.0096 0.113,1.196137 0.21635,-1.186491 0.27699,0.0083 0.13918,1.185113 0.18465,-1.174089 0.26597,0.0083 z m -2.50941,-0.720714 c -0.0717,0.08544 -0.0923,0.201194 -0.0648,0.3514 0.0207,0.111621 0.0937,0.2949 0.25355,0.265961 0.10198,-0.01929 0.15572,-0.121267 0.17915,-0.179145 -0.0234,-0.02894 -0.0827,-0.09922 -0.13918,-0.166743 -0.11989,-0.140559 -0.19293,-0.227376 -0.22876,-0.271473 m -0.008,-0.908127 c -0.006,0 -0.011,0.0014 -0.0165,0.0028 -0.12816,0.02343 -0.11024,0.176389 -0.10197,0.223242 0.0179,0.09646 0.0978,0.209462 0.17914,0.312815 0.0923,-0.101975 0.12402,-0.219108 0.0965,-0.366558 -0.011,-0.0565 -0.0331,-0.104731 -0.0648,-0.135048 -0.0262,-0.02618 -0.0579,-0.03858 -0.0923,-0.03721 m 0.14193,1.79145 c -0.23564,0.0124 -0.41341,-0.162609 -0.46991,-0.469911 -0.0441,-0.243913 0.0179,-0.453375 0.17915,-0.606337 -0.13367,-0.155718 -0.20946,-0.2949 -0.23289,-0.425814 -0.0372,-0.202571 0.0262,-0.458886 0.32935,-0.514008 0.23013,-0.04134 0.41479,0.09646 0.46164,0.345887 0.0413,0.227377 -0.0276,0.434083 -0.19981,0.598069 0.0234,0.02618 0.23702,0.275608 0.26872,0.312815 0.006,-0.0813 0.01,-0.157097 0.007,-0.241157 v -0.03169 l 0.24115,-0.01791 0.001,0.03445 c 0.004,0.157097 -0.0138,0.336241 -0.0496,0.502984 0.0152,0.01929 0.2825,0.33762 0.2825,0.33762 l -0.30731,0.05374 -0.11851,-0.135048 c -0.0744,0.13367 -0.19154,0.224621 -0.32935,0.249425 -0.0207,0.0041 -0.0413,0.0069 -0.0634,0.0069 m -1.39595,0.396875 -0.61185,-1.588878 -0.33624,0.128157 -0.091,-0.235644 0.93844,-0.362424 0.0923,0.237022 -0.33624,0.129536 0.61185,1.588878 z m -0.8599,0.410655 -0.7965,-1.506196 -0.31833,0.169499 -0.11851,-0.22462 0.88883,-0.469911 0.11989,0.22462 -0.31832,0.168121 0.79512,1.504818 z m -1.56958,-0.80064 0.29076,0.649056 0.21498,-0.150206 z m 0.39963,1.561317 -0.0165,-0.03858 -0.7717,-1.801096 0.28526,-0.198437 1.44005,1.387684 -0.23703,0.165365 -0.41065,-0.401009 -0.29766,0.206705 0.23427,0.523655 z m -1.70326,-0.742762 0.43684,0.469911 0.11438,-0.106109 c 0.0965,-0.08957 0.073,-0.213596 -0.0703,-0.369314 -0.0662,-0.07028 -0.13229,-0.118512 -0.19155,-0.137804 -0.0675,-0.02205 -0.12678,-0.0083 -0.17914,0.04134 z m 0.94809,1.444184 -0.0234,-0.0248 -1.30776,-1.409733 0.32935,-0.305924 c 0.22738,-0.21084 0.4892,-0.181902 0.73312,0.0813 0.17501,0.188791 0.23564,0.384473 0.16949,0.540191 l 0.80478,0.464399 -0.21635,0.199815 -0.74414,-0.432704 -0.0951,0.08682 0.56086,0.604959 z m -1.86173,-0.434082 0.5333,0.434082 0.0799,-0.09922 c 0.0345,-0.04272 0.13918,-0.170877 -0.13918,-0.396875 -0.22738,-0.184658 -0.32935,-0.115757 -0.38585,-0.04686 z m 1.13826,1.296734 -0.0262,-0.02067 -1.49241,-1.214052 0.28801,-0.355534 c 0.10059,-0.121267 0.2191,-0.177767 0.35415,-0.169499 0.11989,0.0069 0.2508,0.06752 0.38861,0.180523 0.14607,0.117133 0.23564,0.241157 0.27009,0.366559 0.0358,0.136425 0.003,0.267339 -0.0978,0.391362 l -0.0951,0.115756 0.59255,0.482313 z m 0,0"
         id="path958" />
      <path
         style="fill:#f8d70a;fill-opacity:1;fill-rule:evenodd;stroke:none;stroke-width:0.352778"
         d="m 132.95923,47.184224 c 0,0 -0.0372,0.0083 -0.0978,0.03032 -0.0606,0.02067 -0.11438,0.11989 -0.1378,0.165365 -0.0248,0.04685 -0.0427,0.128157 -0.0675,0.187413 -0.0248,0.06063 -0.0854,0.114377 -0.0854,0.114377 l -0.0634,0.04272 -0.0592,0.06752 -0.007,0.08682 -0.21911,-0.0248 c 0,0 -0.17088,0.0441 -0.18603,0.08819 -0.0124,0.03445 0.15158,0.135048 0.15158,0.135048 l -0.008,0.195682 c 0.10611,-0.01929 0.24254,-0.03169 0.30455,-0.03169 0.14331,0 0.26871,0.04961 0.36104,0.117133 0.0923,0.06752 0.1819,0.148828 0.23151,0.208084 0.0234,0.02756 0.0634,0.06201 0.1006,0.06201 0.0482,0 0.0634,-0.02343 0.0634,-0.08268 0,-0.08819 -0.0524,-0.216352 -0.0841,-0.282497 0.27561,0.08682 0.31557,0.179144 0.29628,0.2949 0.0744,-0.09922 0.25356,-0.279742 0.25356,-0.544326 -0.001,-0.209461 -0.226,-0.391362 -0.38034,-0.51263 -0.0179,-0.01378 -0.15986,-0.121267 -0.20808,-0.151584 -0.0317,-0.01929 -0.0524,-0.03169 -0.091,-0.07304 z m -10.40005,1.745975 -0.80064,0.186035 c 0,0 -0.56362,0.01378 -0.63666,0.01378 -0.20808,0 -0.17776,-0.183279 -0.11713,-0.206706 0.0124,0.100597 0.0951,0.14056 0.15021,0.14056 0.0248,0 0.0358,-0.0028 0.0661,-0.0096 -0.15572,-0.170877 -0.13505,-0.198438 -0.10886,-0.235645 -0.13092,-0.118511 -0.0358,-0.267339 -0.003,-0.265961 0.001,0.115755 0.0482,0.180523 0.0813,0.216352 0.0441,-0.0041 0.0937,0.0248 0.11575,0.02756 -0.0124,-0.02618 -0.0482,-0.06477 -0.0482,-0.129535 0,-0.08957 0.0455,-0.125402 0.0827,-0.144695 -0.003,0.0083 -0.007,0.03445 -0.007,0.07028 0.001,0.04548 0.0179,0.115756 0.11576,0.169499 0.0689,0.0441 0.24943,0.139182 0.30592,0.139182 0.0331,0 0.0441,-0.04685 0.0441,-0.06201 0,-0.130913 -0.21222,-0.151584 -0.27423,-0.195681 -0.0661,-0.0565 -0.062,-0.09922 -0.062,-0.143316 0.0937,-0.0124 0.19982,0.06063 0.26321,0.05374 -0.022,-0.04547 -0.0317,-0.07166 -0.0317,-0.100596 0.0896,-0.03032 0.16399,-0.0096 0.16674,0.07717 0.0152,0.01929 0.0386,0.0565 0.0524,0.06201 0.0193,-0.03997 0.0579,-0.104733 0.0965,-0.100598 0.0386,0 0.0827,0.0689 0.10059,0.106108 0.0937,0 0.0978,-0.01791 0.11851,-0.03858 -0.0276,-0.02618 -0.0524,-0.07166 -0.0524,-0.124023 0.001,-0.03169 0.0152,-0.06615 0.0482,-0.09922 0.0923,-0.0055 0.10611,0.04685 0.14056,0.117134 z m 0,0"
         id="path960" />
      <path
         style="fill:#ffffff;fill-opacity:1;fill-rule:evenodd;stroke:none;stroke-width:0.352778"
         d="m 122.21329,47.162176 -1.00873,-0.385851 c -0.0248,-0.01653 -0.31281,-0.205328 -0.47817,-0.126779 -0.0386,-0.02343 -0.20395,-0.107488 -0.31833,-0.09095 -0.0868,-0.05374 -0.22049,-0.0689 -0.3073,-0.08544 -0.0165,-0.0028 -0.12541,0.03307 -0.16537,0.05788 -0.0551,0.03996 -0.17225,0.121268 -0.20946,0.195682 -0.001,0.0055 -0.31282,-0.07993 -0.35416,-0.07304 -0.0482,-0.0028 -0.13091,0.16812 -0.17225,0.254937 -0.0248,0.04134 -0.14607,0.04134 -0.23702,0.02756 -0.1323,0 -0.33762,-0.06615 -0.48232,-0.02205 -0.11575,0.02894 -0.21773,0.148828 -0.22462,0.307302 -0.1378,0.02067 -0.23978,0.06615 -0.27285,0.09095 -0.14745,0.01929 -0.2949,0.135048 -0.33348,0.177767 -0.10198,0.108865 -0.11576,0.16123 -0.11576,0.391362 0,0.08268 0.0689,0.195682 0.1943,0.312815 0.0165,0.319705 0.25632,0.507118 0.28939,0.540191 0.0496,0.04961 0.47956,0.101975 0.52917,-0.0014 0.0262,0 0.1378,-0.0028 0.22462,-0.0028 0.0537,0.09233 0.17363,0.275607 0.6339,0.05926 0.13091,-0.0096 1.44694,-0.337619 1.80247,-0.482313 0,0 0.54433,-0.162609 0.56913,-0.168121 l -0.35416,-0.355534 0.15986,-0.321083 z m 0,0"
         id="path962" />
      <path
         style="fill:#ffffff;fill-opacity:1;fill-rule:evenodd;stroke:none;stroke-width:0.352778"
         d="m 129.66848,46.128647 -0.42444,0.33762 0.0262,0.101974 -0.3073,0.12678 0.0289,0.117133 0.45475,0.148828 -0.45751,0.09784 0.001,0.201194 0.30592,0.144694 -0.16123,0.144693 0.0152,0.03032 0.42995,0.06752 -0.31695,0.256315 0.40377,0.04272 0.0551,0.187413 h 0.27147 l 0.10611,0.250804 2.07946,-0.110244 0.008,-0.197059 c 0,0 -0.15848,-0.09646 -0.15159,-0.136426 0.007,-0.03996 0.18328,-0.08682 0.18328,-0.08682 l 0.22187,0.0248 0.007,-0.08682 c 0,0 0.17639,-0.14745 0.20119,-0.206706 0.0248,-0.05926 0.0606,-0.136426 0.0854,-0.181901 0.0234,-0.0441 0.062,-0.103353 0.12264,-0.124023 0.0593,-0.02067 0.11852,-0.04961 0.11852,-0.04961 -0.008,-0.02067 -0.23565,-0.267339 -0.29215,-0.322461 -0.14194,-0.264583 -1.93063,-0.928797 -2.52181,-0.928797 z m 0,0"
         id="path964" />
      <path
         style="fill:#211e1e;fill-opacity:1;fill-rule:nonzero;stroke:none;stroke-width:0.352778"
         d="m 124.80124,51.333497 h 0.051 c 0.0344,0 0.0593,-0.0069 0.073,-0.01791 0.0138,-0.01102 0.0207,-0.0248 0.0207,-0.04272 0,-0.01791 -0.006,-0.03169 -0.0193,-0.04272 -0.0138,-0.01102 -0.0358,-0.01653 -0.0689,-0.01653 h -0.0565 z m -0.11989,-0.203949 h 0.21498 c 0.0606,0 0.10473,0.0124 0.13229,0.03583 0.0262,0.0248 0.04,0.05788 0.04,0.09922 0,0.03169 -0.01,0.06063 -0.0303,0.08406 -0.022,0.02343 -0.0537,0.03996 -0.0992,0.04961 0.0193,0.0083 0.0331,0.01516 0.0413,0.02343 0.0124,0.01102 0.0248,0.02756 0.0372,0.04823 0.001,0.0014 0.0276,0.04823 0.0785,0.139182 h -0.14056 c -0.0468,-0.09095 -0.0772,-0.146073 -0.0923,-0.163987 -0.0165,-0.01791 -0.0317,-0.02618 -0.0469,-0.02618 -0.004,0 -0.01,0 -0.0152,0.0014 v 0.188791 h -0.11989 z m 0.565,0.239778 c 0,-0.100596 -0.0345,-0.184657 -0.10473,-0.256315 -0.0717,-0.07028 -0.1571,-0.106109 -0.25632,-0.106109 -0.10059,0 -0.18465,0.03583 -0.25631,0.106109 -0.0703,0.07166 -0.10611,0.155719 -0.10611,0.256315 0,0.09922 0.0358,0.184657 0.10611,0.256316 0.0717,0.07028 0.15572,0.106109 0.25631,0.106109 0.0992,0 0.18466,-0.03583 0.25632,-0.106109 0.0703,-0.07166 0.10473,-0.157097 0.10473,-0.256316 m 0.0882,0 c 0,0.07993 -0.0207,0.154341 -0.0606,0.224621 -0.04,0.0689 -0.0951,0.124023 -0.16399,0.163986 -0.0703,0.03996 -0.14469,0.05926 -0.22462,0.05926 -0.0799,0 -0.15434,-0.01929 -0.22462,-0.05926 -0.0689,-0.03996 -0.12402,-0.09509 -0.16398,-0.163986 -0.04,-0.07028 -0.0593,-0.144694 -0.0593,-0.224621 0,-0.07993 0.0193,-0.15434 0.0593,-0.22462 0.04,-0.0689 0.0951,-0.124023 0.16398,-0.163987 0.0703,-0.03996 0.1447,-0.05926 0.22462,-0.05926 0.0799,0 0.15434,0.01929 0.22462,0.05926 0.0689,0.03996 0.12403,0.09508 0.16399,0.163987 0.04,0.07028 0.0606,0.144694 0.0606,0.22462"
         id="path966" />
      <path
         style="fill:#7a7878;fill-opacity:1;fill-rule:evenodd;stroke:none;stroke-width:0.352778"
         d="m 124.63726,46.163098 z m -9.11572,-3.176378 z m 18.09226,-1.061089 c 0,0 -0.64768,-0.124024 -2.73265,0.540191 0,0 -0.0165,-0.90675 -0.17088,-0.909506 -0.0868,-0.0014 -0.21359,0.19706 -0.30041,0.549837 -0.0634,-0.04823 -0.31282,-0.241156 -0.46853,-0.278363 -0.0124,-0.0028 -0.0441,0.44235 0.0152,0.527789 -0.15986,-0.01929 -1.58613,-0.03445 -1.63849,0.07717 -0.0124,0.02756 0.41479,0.205327 0.4644,0.261827 -0.0289,-0.0014 -0.79651,-0.06063 -0.95912,0.100597 0,0.03169 0.33211,0.304546 0.34589,0.340375 -0.01,0 -1.28433,0.05099 -1.42627,0.26734 0.0207,0.06201 0.25218,0.225998 0.26183,0.234266 -0.0124,0 -0.56913,-0.02205 -0.70418,0.103353 -0.27699,-0.312815 -1.12448,-1.3491 -1.68947,-1.892046 -0.8599,-0.826823 -1.60818,-0.861274 -4.19613,-0.826823 -2.27376,0.09646 -3.80339,0.24529 -5.13457,0.24529 -0.40239,0 -0.68902,-0.01102 -1.01837,-0.01516 -0.0289,0 -0.30868,0.09371 -0.34176,0.482314 -0.003,0.04548 1.42076,0.0813 1.45659,0.08957 -0.30592,0.746897 0.49058,1.626085 0.78824,2.043631 0.26458,0.257693 0.69453,0.82131 1.43316,0.82131 0.0923,0 0.23702,-0.03445 0.23427,-0.03583 0.23288,0.12678 0.95498,0.334864 1.15755,0.385851 0.23978,0.194304 0.73449,0.259072 1.20992,0.23151 -10e-4,0 -0.23565,0.103353 -0.37483,0.20395 -0.001,0 0.37345,0.303168 0.76343,0.283876 0.17777,0.03169 0.68351,-0.0565 0.81856,-0.09233 -0.0868,0.101975 -0.30179,0.35829 -0.30179,0.35829 0.16674,0.26045 0.96462,0.217731 1.00183,0.04823 -0.0317,0.143316 0.0634,0.534679 0.89986,0.300412 0.0262,-0.0083 -0.15848,0.256315 -0.15021,0.270096 0.10198,0.177767 0.94671,-0.113 0.94258,-0.115756 0.004,0.0028 -0.0896,0.213596 -0.0896,0.257693 0,0.09371 0.7152,0.106109 0.72209,0.108866 -0.0537,0.03445 -0.40514,0.212218 -0.65457,0.197059 -0.0923,-0.0055 -0.80064,0.03721 -1.09692,0.07028 -0.25907,0.02894 -0.77308,0.104731 -1.00734,0.252181 0,0 -0.26045,0.141938 -0.13367,0.51263 0.0193,0.05788 0.29765,0.22462 0.46302,0.202572 0.0854,-0.0069 0.34864,-0.03996 0.34864,-0.03996 0.0345,-0.0083 0.31971,0.02343 0.34865,0.133669 0,0 -0.21636,0.336242 -0.1571,0.68902 0.003,0.01929 2.25723,-0.04272 2.49425,-0.05237 2.45291,-0.09508 2.77537,-0.09508 4.40421,-0.3514 l -0.339,-0.930175 0.14607,-0.129536 -0.29214,0.0069 -0.0179,-0.774458 c 0,0 1.00321,-0.774457 1.94992,-1.543403 0.77584,-0.629763 2.63481,-1.900314 2.80431,-2.071191 0,0 0.0275,-0.09371 0.003,-0.405143 -0.0152,-0.206706 -0.0152,-0.522277 -0.0813,-0.734494"
         id="path968" />
      <path
         style="fill:#211e1e;fill-opacity:1;fill-rule:evenodd;stroke:none;stroke-width:0.352778"
         d="m 130.36714,47.450186 c -0.0717,0 -0.003,0.04547 -0.0882,0.04547 -0.0234,0 -0.3514,-0.05512 -0.3514,-0.07855 l -0.008,0.05926 c 0.0303,-0.0124 0.091,0.0124 0.091,0.05237 0,0.02205 -0.113,0.02343 -0.16123,0.0248 -0.006,0.02205 -0.003,0.05099 -0.003,0.05099 0.0303,-0.01654 0.0606,-0.01516 0.0661,-0.01378 0.0248,0.0069 0.0634,0.03169 0.19568,0.01654 0.0854,-0.01102 0.38585,-0.04685 0.38585,-0.04685 0.01,-0.01102 0.0165,-0.02756 0.0248,-0.03169 -0.008,-0.0055 -0.0551,-0.02894 -0.0717,-0.03583 -0.0565,-0.02205 -0.0344,-0.04272 -0.0799,-0.04272"
         id="path970" />
      <path
         style="fill:#211e1e;fill-opacity:1;fill-rule:evenodd;stroke:none;stroke-width:0.352778"
         d="m 130.60141,47.648623 c -0.0207,0 -0.0482,0.03169 -0.0703,0.03445 0.0496,0.03169 0.39412,0.07166 0.39412,0.135048 0,0 0.44648,0.0055 0.45888,0.0041 -0.008,-0.01378 -0.0606,-0.03445 -0.0606,-0.03445 -0.12954,-0.0014 -0.19293,-0.04134 -0.33349,-0.05237 0.001,-0.01378 0.01,-0.0441 0.008,-0.05512 0,0 -0.37482,-0.03169 -0.39687,-0.03169"
         id="path972" />
      <path
         style="fill:#211e1e;fill-opacity:1;fill-rule:evenodd;stroke:none;stroke-width:0.352778"
         d="m 130.59865,46.179635 c -0.0827,-0.02067 -0.4327,-0.05926 -0.47956,-0.06752 l -0.0413,0.0096 c 0.0262,0.03032 0.0593,0.04823 0.0799,0.04823 h 0.11575 c 0.0221,0 0.0331,0.0069 0.04,0.01378 -0.008,0.02343 -0.008,0.05099 10e-4,0.07028 h 0.20671 c 0.0207,0 0.062,0.02618 0.0827,0.0248 h 0.062 c -0.0455,-0.04272 -0.0868,-0.03721 -0.0923,-0.0689 0.007,-0.0069 0.0248,-0.01929 0.0248,-0.03032"
         id="path974" />
      <path
         style="fill:#211e1e;fill-opacity:1;fill-rule:evenodd;stroke:none;stroke-width:0.352778"
         d="m 120.78977,46.842471 c 0.008,-0.0083 0.062,-0.108865 0.062,-0.108865 -0.15159,-0.175011 -0.70969,-0.352778 -0.90813,-0.208084 0.007,0.02205 0.17914,0.158474 0.19568,0.155718 0.25356,-0.03858 0.55673,0.106109 0.65043,0.161231"
         id="path976" />
      <path
         style="fill:#211e1e;fill-opacity:1;fill-rule:evenodd;stroke:none;stroke-width:0.352778"
         d="m 119.16231,46.852117 c -0.001,0.0096 -0.0496,0.06063 -0.14883,0.06063 -0.14331,0 -0.2067,-0.01929 -0.35277,-0.01929 -0.0992,0 -0.15021,0.0124 -0.15021,0.0124 l 0.0551,0.135048 c 0.10473,-0.01791 0.20395,-0.01791 0.24391,-0.01791 0.2012,0 0.60634,0.05926 0.60634,0.05926 -0.022,-0.0248 -0.0744,-0.07717 -0.0868,-0.09095 -0.0151,-0.01791 -0.0413,-0.05374 -0.0413,-0.09922 0,-0.124023 0.0965,-0.144694 0.1695,-0.144694 0.0469,0 0.1006,0.0124 0.15572,0.02894 0.19844,0.06063 0.49747,0.169499 0.49747,0.169499 l 0.0289,-0.112999 c -0.11162,-0.04685 -0.62425,-0.227376 -0.7276,-0.227376 -0.14056,0 -0.23289,0.09646 -0.24943,0.246669"
         id="path978" />
      <path
         style="fill:#211e1e;fill-opacity:1;fill-rule:evenodd;stroke:none;stroke-width:0.352778"
         d="m 118.48432,46.984409 -0.0152,-0.06752 c -0.0234,0.0041 -0.0551,0.01378 -0.0951,0.03996 -0.0289,0.01929 -0.0951,0.07855 -0.10886,0.188791 0.01,0.0014 0.0661,-0.01516 0.0813,-0.0248 0.0221,-0.05374 0.0551,-0.09508 0.13781,-0.136426"
         id="path980" />
      <path
         style="fill:#211e1e;fill-opacity:1;fill-rule:evenodd;stroke:none;stroke-width:0.352778"
         d="m 118.68275,47.225565 0.34176,-0.0028 c -0.0689,0.04685 -0.11714,0.111621 -0.13781,0.111621 -0.022,0 -0.32797,0 -0.34037,-0.0014 -10e-4,-0.01102 0.0882,-0.09646 0.13642,-0.107487 m -0.49471,0.220486 c 0.0854,0.0014 0.24667,-0.0069 0.339,-0.0041 0.1502,0.0028 0.18741,0.100597 0.21359,0.139182 0.10749,-0.0069 0.1695,-0.02205 0.24667,-0.01929 -0.0248,-0.04685 -0.0675,-0.107487 -0.0951,-0.14056 0.0537,0 0.1695,0 0.22462,0.0028 0.0537,0.0014 0.17776,0.118511 0.17776,0.118511 l 0.1571,-0.01378 c -0.0689,-0.06477 -0.14883,-0.15572 -0.17088,-0.184659 -0.0207,0 -0.16398,-0.0083 -0.26182,-0.0083 0.022,-0.01103 0.1819,-0.121268 0.1819,-0.121268 h 0.85576 c -0.011,-0.03996 -0.0937,-0.06063 -0.27147,-0.06063 h -1.19752 c -0.30868,0 -0.52365,0.09922 -0.59256,0.150207 0.003,0.0096 0.19293,0.141938 0.19293,0.141938"
         id="path982" />
      <path
         style="fill:#211e1e;fill-opacity:1;fill-rule:evenodd;stroke:none;stroke-width:0.352778"
         d="m 117.66576,47.473612 c 0.0344,0.0041 0.1254,0.05512 0.16537,0.07028 0,0 0.1254,-0.07717 0.15709,-0.09922 -0.008,-0.01653 -0.0717,-0.09784 -0.0813,-0.115756 -0.12265,0.03583 -0.23702,0.137804 -0.24116,0.144694"
         id="path984" />
      <path
         style="fill:#211e1e;fill-opacity:1;fill-rule:evenodd;stroke:none;stroke-width:0.352778"
         d="m 117.76636,47.855329 c 0,0 0.452,-0.01378 0.5457,-0.01654 0.0951,-0.0041 0.14056,-0.143316 0.14056,-0.143316 -0.0634,0.0096 -0.66421,0.07304 -0.68488,0.07441 0,0 10e-4,0.05237 -0.001,0.08544"
         id="path986" />
      <path
         style="fill:#211e1e;fill-opacity:1;fill-rule:evenodd;stroke:none;stroke-width:0.352778"
         d="m 132.83796,42.428615 -0.0965,0.07855 0.30317,0.220486 c 0,0 -0.23702,0.05374 -0.4203,-0.170877 0.04,-0.209462 0.20532,-0.558105 0.51263,-0.5898 0.22324,-0.02343 0.30868,0.0041 0.36518,0.0124 -0.13229,0.07993 -0.21222,0.166743 -0.21222,0.166743 0,0 0.0854,0.126779 0.0854,0.230132 0,0.04548 -0.11162,0.205328 -0.11162,0.205328 z m -0.40514,1.041796 c 0.004,0.03445 -0.11438,0.104731 -0.11989,0.143316 l -0.004,-0.186035 c 0,0 -0.18604,0.19706 -0.18328,0.486448 l 0.14193,-0.04134 c 0.0303,0.01653 0.0634,0.0565 0.0331,0.07579 -0.17088,0.108864 -0.35829,0.06201 -0.37069,0.05374 0.0592,-0.673861 0.6711,-1.054199 0.85025,-1.103809 -0.0441,0.03307 -0.36794,0.424436 -0.34727,0.571886 m -0.63941,0.47818 c -0.2384,0.356912 -0.55122,0.412033 -0.58015,0.399631 0.007,-0.03583 0.0193,-0.05237 0.0165,-0.110243 0.0648,0.0055 0.47405,-0.205328 0.46164,-0.425814 -0.16674,0.04823 -0.37207,0.225998 -0.37069,0.223242 0.3073,-0.558106 0.58705,-0.784104 0.58705,-0.784104 0.01,0.07993 0.0744,0.413412 -0.11438,0.697288 m -0.96049,1.070735 c 0,0 0.0634,-0.07855 0.10059,-0.332107 0.0813,-0.556727 -0.47404,-1.014236 -0.47404,-1.014236 -0.004,-0.132292 -0.0207,-0.151584 -0.0207,-0.158474 0.74552,0.216352 0.80753,1.227832 0.39412,1.504817 m -0.24254,0.12678 c -0.113,0.07579 -0.24253,0.195681 -0.31419,0.36518 -0.008,0.02067 0.0703,-0.600825 0.0524,-0.774457 -0.0262,-0.249426 -0.25632,-0.755165 -0.81856,-0.943957 0.0386,-0.07993 -0.006,-0.117133 -0.0524,-0.17501 1.38907,0.531922 1.13275,1.528244 1.13275,1.528244 m 0.0124,0.945334 c 0.50987,0.135048 1.24161,0.35829 1.85346,0.693153 0.17225,0.09233 0.38171,0.312815 0.43408,0.418924 -0.0165,0.0041 -0.0744,0.0248 -0.0744,0.04685 0,0.02067 0.01,0.03583 0.0193,0.03583 0.011,0 0.0276,-0.01516 0.0675,-0.01516 0.0648,0 0.38999,0.248047 0.565,0.396875 0.10059,0.08544 0.18879,0.232889 0.18879,0.37207 0,0.198438 -0.1254,0.3514 -0.17501,0.388607 -0.0262,-0.09371 -0.0992,-0.144694 -0.15986,-0.166743 -0.0207,-0.0069 -0.20532,-0.07303 -0.34588,-0.155717 -0.21911,-0.122645 -0.43684,-0.151584 -0.6463,-0.151584 -0.022,0 -0.11576,0.0014 -0.14332,0.0124 0.0331,0.04272 0.0882,0.04134 0.1254,0.04134 0.35278,0 0.52917,0.08682 0.60083,0.128157 0.0703,0.04134 0.19981,0.12678 0.22324,0.179145 0,0 0.0703,0.175011 0.0703,0.238401 0,0.03169 -0.0248,0.03721 -0.0331,0.03721 -0.0221,0 -0.0455,-0.02343 -0.062,-0.04134 -0.2632,-0.289388 -0.42719,-0.391363 -0.77032,-0.398254 -0.0152,0 -0.0276,-0.07166 -0.0386,-0.08682 -0.0317,-0.01102 -0.0717,-0.0055 -0.10335,-0.01378 -0.10611,-0.03032 -0.12816,-0.08957 -0.12816,-0.107487 0.0441,-0.03996 0.0992,-0.06752 0.15297,-0.06752 l 0.11162,0.0124 c 0.14056,0.02756 0.13918,-0.01791 0.13918,-0.03859 0,-0.04823 0.0207,-0.103352 0.062,-0.125401 0.008,-0.0014 0.0551,-0.01516 0.0606,-0.0248 0.0207,-0.04272 0.0262,-0.06201 0.051,-0.100597 0.006,-0.01653 0.0152,-0.03583 0.0124,-0.04823 -0.0303,0.0441 -0.0662,0.08819 -0.0965,0.110243 -0.0289,0.02067 -0.0648,0.02343 -0.0909,0.03996 -0.0441,0.03032 -0.0661,0.146072 -0.0717,0.161231 -0.008,-0.0014 -0.0303,-0.01653 -0.0469,-0.04134 -0.0606,0.03032 -0.24116,-0.01516 -0.24116,-0.01516 0.008,0.02205 0.0413,0.03721 0.0496,0.05099 -0.0234,0.01516 -0.0427,0.02205 -0.0634,0.02205 -0.0207,0 -0.0992,-0.05788 -0.11989,-0.05788 -0.022,0 -0.0358,0.01516 -0.0482,0.01791 0.0179,0.02067 0.0524,0.03996 0.0675,0.06201 -0.0138,0.0055 -0.0441,0.0124 -0.0565,0.01378 0.008,0.02067 0.0248,0.01516 0.0248,0.03583 0,0.02067 -0.0165,0.05374 -0.0165,0.05374 0.0207,-0.0069 0.0372,-0.01516 0.0593,-0.01516 0.0207,0 0.0413,0.03307 0.0413,0.05374 0,0.02205 0.011,0.02067 0.011,0.02067 0.0358,0.0014 0.0717,0.0041 0.10335,0.01102 -10e-4,0.0055 -0.008,0.01102 -0.0152,0.01929 l -0.11162,-0.0041 c -0.011,0.03583 -0.0455,0.0055 -0.0689,0.03032 0.0372,0.01929 0.0799,0.03721 0.11851,0.0441 0.0124,0.05788 0.0248,0.03721 0.0248,0.0813 0,0.02067 -0.0413,0.01929 -0.0565,0.01929 -0.0179,0 -0.0345,-0.0014 -0.0565,-0.0055 10e-4,-0.01378 0.0179,-0.02205 0.0179,-0.04134 -0.0193,-0.0096 -0.0414,-0.04272 -0.062,-0.04272 h -0.10749 c -0.0207,0 -0.0469,0.03721 -0.0455,0.05512 0.0179,0.0096 0.0248,0.02343 0.0248,0.02894 -0.0234,0.0083 -0.0482,0.01929 -0.0689,0.01929 -0.0207,0 -0.0262,-0.01516 -0.0317,-0.01516 -0.0565,-0.0069 -0.26734,-0.0014 -0.36793,-0.0014 -0.0469,0 -0.0606,0 -0.10749,-0.0248 0.008,-0.0055 0.0165,-0.01378 0.0234,-0.01929 0.04,-0.0028 0.0882,-0.02205 0.10886,-0.02205 0.0207,0 0,0.01653 0.0207,0.01653 l 0.0841,-0.0028 c 0,-0.0124 0.008,-0.02894 0.008,-0.03996 -0.0276,-0.0096 -0.0606,-0.02894 -0.0758,-0.03445 0.008,-0.0055 0.10611,-0.06201 0.11024,-0.119889 -0.011,-0.0014 -0.20532,-0.06339 -0.32108,-0.0813 l -0.40652,0.01653 c -0.0207,0 -0.0565,-0.03445 -0.0772,-0.03307 l -0.10335,0.0028 c 0.0193,0.01378 0.0303,0.0041 0.0537,0.03996 0.003,-0.0028 0.0772,0.0041 0.15158,0.04685 0.0427,0 0.0951,0 0.10473,0 -10e-4,0.01378 -0.007,0.03307 -0.0648,0.03307 -0.0193,0 -0.0372,-0.0028 -0.0565,-0.0028 -0.0455,0 -0.0813,0.02756 -0.10198,0.02756 -0.0386,0 -0.0772,-0.05512 -0.10886,-0.05512 -0.0565,0 -0.47543,0.202571 -0.4961,0.202571 -0.022,0 -0.0469,-0.0028 -0.0469,-0.03032 0,-0.02067 0.0179,-0.0248 0.0165,-0.05374 -0.062,0 -0.14194,-0.0248 -0.16399,-0.0248 -0.0207,0 -0.0331,0.0069 -0.13091,0.0083 0.0124,-0.06063 -0.0427,-0.05099 -0.0579,-0.06477 0,-0.0248 0.008,-0.05099 0.006,-0.06752 -0.006,-0.01653 -0.0221,-0.02343 -0.0234,-0.03858 0.0234,-0.0069 0.63252,0.0096 0.63666,0.0096 0.0207,0 0.0854,-0.01653 0.13091,-0.03583 h -0.22186 c -0.008,-0.0055 0.18741,-0.06063 0.20532,-0.06063 -0.14193,-0.01378 -0.58291,-0.02756 -0.59393,-0.03721 -0.062,0.0028 -0.2825,0.02894 -0.28112,0.04134 0,0 0.14194,0.02067 0.14194,0.02756 -0.007,0.0069 -0.0496,0.02343 -0.12265,0.02343 0,0 -0.25631,-0.02343 -0.28112,-0.02205 0.007,-0.0041 0.21911,-0.173633 0.26734,-0.20395 0.0207,-0.0124 0.0579,-0.0014 0.0854,-0.01378 -0.0193,-0.01378 -0.0648,-0.04685 -0.0978,-0.04685 0,0 -0.39274,-0.06752 -0.41479,-0.07304 0,0 0.18466,-0.129536 0.19982,-0.129536 h 0.073 c 0.0207,0 0.10749,0.05926 0.12816,0.05926 0,0 0.23427,0.01653 0.24529,0.01653 0.01,-0.01791 0.0179,-0.02894 0.0179,-0.03996 -0.0276,-0.0096 -0.16123,-0.05237 -0.19292,-0.05237 -0.0207,0 -0.0551,0.01653 -0.0758,0.01653 -0.0207,0 -0.0427,-0.03307 -0.0648,-0.03307 h -0.15159 c -0.0165,0 -0.0248,-0.01378 -0.0248,-0.02067 0,-0.01102 0.006,-0.02067 0.011,-0.02618 0,0 0.24666,-0.0248 0.24529,-0.05237 -0.011,-0.0014 -0.0662,-0.0441 -0.12954,-0.0441 h -0.40239 c -0.0207,0 -0.0303,-0.0124 -0.0317,-0.02618 0.0234,-0.0069 0.0386,-0.02343 0.0606,-0.02343 0.0207,0 -0.0606,-0.100597 -0.0675,-0.106109 0.0744,-0.0248 0.85438,-0.121268 0.85438,-0.121268 l -0.17776,-0.132291 -0.54433,-0.0028 c -0.01,0.01791 -0.14883,-0.121267 -0.14883,-0.121267 0.0744,-0.02894 0.2949,-0.08682 0.53882,-0.07993 l -0.22187,-0.148828 c 0,0 0.45613,-0.206705 0.70142,-0.254937 -0.051,-0.0248 -0.2949,-0.02894 -0.30317,-0.03583 v -0.03032 c 0.0165,-0.01516 0.34176,-0.08819 0.37759,-0.07993 0.0165,-0.0441 0.0331,-0.07579 0.0786,-0.07579 0.0207,0 0.401,0.07166 0.44924,0.08682 m 0.26182,2.200727 c -0.0207,-0.0096 0.12816,-0.272852 0.12816,-0.272852 h 0.1006 c -0.01,0.0248 -0.0303,0.03583 -0.051,0.06201 0.0468,0.0069 0.0978,-0.0069 0.14745,-0.0014 0.0344,0.0041 0.0827,0.02894 0.1254,0.05237 -0.011,0.01516 -0.0689,0.117133 -0.21911,0.117133 -0.0303,0.0096 -0.18879,0.03307 -0.23151,0.04272 m -0.0138,-0.166743 c -0.0276,0.04548 -0.0772,0.143316 -0.13504,0.155719 -0.0441,0.0096 -0.19706,0.02894 -0.29215,0.03169 0.0303,-0.0069 0.15572,-0.245291 0.16261,-0.252181 h 0.0303 c 0.0138,0.0124 0.0868,0.05788 0.0868,0.05788 0.0179,-0.0083 0.0124,-0.0248 0.0331,-0.0248 h 0.11437 z m -0.56086,0.225999 h -0.17087 v -0.06615 c 0.0482,0.03721 0.0882,-0.0014 0.12953,-0.0014 0.0207,0 0.0937,0.0083 0.13918,0.03032 -0.0372,0.0124 -0.0772,0.03721 -0.0978,0.03721 m -1.17822,0.13367 c -0.0689,-0.01653 -0.20533,-0.07717 -0.24529,-0.122646 -0.0386,0 -0.31557,0.06752 -0.31557,0.06752 -0.003,-0.02205 -0.0221,-0.03583 -0.0193,-0.08819 0.0372,-0.0028 0.34451,-0.09095 0.34451,-0.09095 -0.001,-0.02067 0.0317,-0.133669 0.13781,-0.194303 -0.0827,-0.04548 -0.17364,-0.08957 -0.20671,-0.165365 0.0482,-0.232888 0.1447,-0.367936 0.2384,-0.413411 0.001,0.01378 0.12403,0.0069 0.10473,0.02343 -0.10059,0.0813 -0.21359,0.259071 -0.20946,0.367936 0.0606,0.104731 0.20946,0.146072 0.27837,0.168121 -0.0593,0.02894 -0.17226,0.112999 -0.22187,0.214974 0,0 0.0262,0.07717 0.24529,0.143316 0,0 -0.113,0.07304 -0.13091,0.08957 m -1.17547,-0.479557 c -0.0138,-0.03032 0.2825,-0.312815 0.2825,-0.312815 l 0.11438,0.05926 c 0,0 -0.14883,0.115755 -0.18604,0.187413 0,0 0.26183,0.07028 0.38447,-0.0069 l -0.0813,0.117133 c -0.15021,0.04685 -0.50023,-0.01378 -0.51401,-0.0441 m -0.14056,0.523655 c -0.004,-0.03721 0.0289,-0.206706 0.0951,-0.26734 -0.11438,0.0041 -0.26597,-0.03583 -0.38999,-0.21773 0.0358,-0.130913 0.17639,-0.22462 0.25218,-0.246669 l 0.0813,0.05374 c -0.0565,-0.0041 -0.1695,0.157096 -0.16812,0.170877 0.0248,0.103352 0.38171,0.155718 0.45613,0.155718 0,0 -0.14332,0.148828 -0.1571,0.259071 0.0551,0.03032 0.10611,0.09233 0.23702,0.07304 0.004,0.01929 0.0965,0.06477 0.10198,0.08544 -0.0455,0.02756 -0.36105,0.04961 -0.5085,-0.06615 m -0.36104,-0.210847 c -0.339,0.126779 -0.54846,-0.0083 -0.63528,-0.0565 0.0331,-0.09233 0.1254,-0.286632 0.29766,-0.337619 l 0.13504,0.02894 c -0.0221,0.0028 -0.20808,0.144694 -0.22875,0.250803 0.19155,0.06201 0.29903,0.05788 0.49058,-0.0055 0,0 -0.0675,0.07717 -0.0593,0.11989 m -0.72623,0.101974 c -0.13229,0.03859 -0.36105,-0.0248 -0.38999,-0.05512 0.0303,-0.07993 0.21773,-0.293522 0.28526,-0.311436 l 0.0937,0.02756 c -0.0827,0.04823 -0.15847,0.112999 -0.23151,0.235644 0.0248,0.01929 0.2136,0.0248 0.28939,0.0083 z m -0.75241,-0.881944 c 0.0551,-0.09095 0.20257,-0.206706 0.34451,-0.237023 0.0317,-0.0055 0.0537,0.05099 0.0537,0.05099 -0.0992,0.03859 -0.15296,0.09371 -0.19981,0.159852 0.0592,0.02618 0.18328,0.07028 0.39825,0.04961 -0.0138,0.03721 -0.0827,0.09508 -0.0854,0.09508 -0.21911,0.04548 -0.39549,-0.01654 -0.51125,-0.118512 m -0.0896,0.152962 c -0.14883,0 -0.2949,-0.04272 -0.35554,-0.141938 0.0482,-0.06201 0.19982,-0.162608 0.29628,-0.162608 0.0207,0 0.0276,0.04823 0.0276,0.04823 -0.0703,0.01378 -0.15296,0.06752 -0.19292,0.111621 0.0344,0.03032 0.15021,0.06615 0.29352,0.08406 -0.0138,0.02756 -0.0661,0.06063 -0.0689,0.06063 m -0.87092,0.333485 c -0.007,-0.0069 0.003,-0.01102 -0.0138,-0.05374 0.0234,-0.02205 0.25218,-0.220486 0.48783,-0.259071 0,0 0.003,0.03996 0.01,0.04548 -0.15296,0.0813 -0.23978,0.121268 -0.3197,0.201194 0,0 0.22875,0.02756 0.5705,-0.07441 0.0138,-0.0041 0.022,0.07166 0.022,0.07166 -0.35829,0.14745 -0.75654,0.0689 -0.75654,0.0689 m -0.12678,-0.424435 c -0.0813,-0.0028 -0.10473,-0.0028 -0.2949,0.184657 0.0565,0.03721 0.22324,-0.02205 0.24391,-0.02205 0.0207,0 0.001,0.09371 0.003,0.09784 -0.25631,0.04961 -0.4079,0.03445 -0.42443,0.03445 -0.0813,0 -0.11851,-0.04272 -0.11438,-0.04685 0.0427,-0.03032 0.40377,-0.3514 0.44649,-0.380339 0.0785,-0.05237 0.39274,-0.304546 0.50711,-0.326595 l -0.062,0.150206 c -0.11162,0.03583 -0.25356,0.201194 -0.23151,0.21773 0.1819,0.111621 0.41755,0.09646 0.452,0.09371 -0.0138,0.02067 -0.0606,0.09922 -0.0937,0.09646 -0.2825,-0.01929 -0.35553,-0.09646 -0.43132,-0.09922 m -0.85163,-0.122645 c 0.3831,-0.10473 0.68075,-0.221864 0.68075,-0.221864 l -0.46578,0.380339 c -0.0579,-0.104731 -0.0785,-0.111621 -0.21497,-0.158475 m -0.11575,0.256316 c -0.1006,0.04961 -0.16537,0.129535 -0.1571,0.110243 0.0358,-0.09371 -0.0289,-0.19706 -0.0358,-0.201194 0.0152,-0.0055 0.19293,-0.112999 0.22462,-0.115755 0.17088,0.06201 0.19293,0.133669 0.19982,0.139182 -0.0786,0.01516 -0.15986,0.03996 -0.23151,0.06752 m -0.60772,0.675238 c 0.007,-0.01378 0.0152,-0.08957 -0.0372,-0.163986 -0.001,-0.0014 0.18328,0.0014 0.3955,-0.155719 0.0496,0.11989 0.14332,0.108866 0.14883,0.118512 0.006,0.0055 -0.13367,0.180523 -0.50712,0.201193 m -0.14194,-0.496093 c -10e-4,-0.0028 0.21911,-0.07304 0.49747,-0.241157 0.008,0.04548 0.006,0.187413 -0.12815,0.303168 0,0 -0.0648,0.02894 -0.29904,0.13367 0,0 0.0165,-0.130914 -0.0703,-0.195681 m 0.011,0.518142 c -0.0207,0.02756 -0.33762,-0.0096 -0.44511,-0.03858 0.0331,-0.03307 0.0496,-0.09784 0.0427,-0.152962 0.14194,0.03032 0.17225,0.02894 0.37207,0.01929 0.0276,0.03032 0.0978,0.0813 0.0303,0.172255 m -0.55949,0.44924 c 0,0 0.0179,-0.0813 -0.051,-0.129536 0,0 0.24115,0.02618 0.39136,-0.133669 0.004,-0.0041 0.23151,0.119889 0.23151,0.119889 -0.24253,0.139182 -0.47405,0.155719 -0.57189,0.143316 m -0.16536,0.03307 c -0.0179,0.0028 -0.0992,0.02618 -0.15021,0.02618 -0.2632,0 -0.29765,0.124024 -0.53054,0.124024 -0.0882,0 -0.14056,-0.02343 -0.18052,-0.03996 -0.0179,-0.0083 -0.11163,-0.06615 -0.11163,-0.06615 -0.0234,-0.01516 -0.0331,-0.03721 -0.0331,-0.07166 0,-0.03032 0.0234,-0.05926 0.0565,-0.05926 0.0317,0 0.11024,0.04961 0.15434,0.06752 0.0372,0.01378 0.0675,0.02618 0.12265,0.02618 0.0207,0 0.0634,-0.0028 0.0634,-0.03583 0,0 -0.011,-0.05374 -0.0179,-0.07579 -0.007,-0.02756 -0.0138,-0.04134 -0.0138,-0.06201 0,-0.04823 0.0537,-0.06201 0.0689,-0.06339 0.0124,-0.0028 0.04,-0.0028 0.0469,-0.0014 0,0.0069 0.001,0.01653 0.001,0.03169 0,0.08819 0.0923,0.100598 0.12816,0.100598 0.0606,0 0.0909,-0.03445 0.16261,-0.03445 0.022,0 0.21497,-0.01653 0.23565,-0.01653 0.0207,0 0.0482,0.03032 0.0579,0.06063 0.011,0.04548 -0.011,0.08268 -0.0606,0.08957 m -1.2237,0.214974 c 0.0124,-0.01516 0.0138,-0.04134 0.003,-0.07028 0.0827,0.02205 0.21084,-0.0124 0.24529,-0.03721 0.0179,0.0096 0.0965,0.05374 0.15297,0.0689 -0.0579,0.01929 -0.35416,0.04134 -0.40101,0.03858 m -0.0909,-0.253559 c 0,-0.02894 0.011,-0.08544 0.0951,-0.08544 0.11024,0 0.11851,0.118511 0.21635,0.194304 -0.007,0.0055 -0.04,0.0441 -0.13504,0.0441 -0.0207,0 -0.0689,-0.0069 -0.0785,-0.01516 -0.0758,-0.03032 -0.0978,-0.110243 -0.0978,-0.137804 m -0.0703,-0.187413 c -10e-4,-0.03307 0.0138,-0.08406 0.04,-0.121268 0.003,0.0096 0.004,0.05237 0.0152,0.101975 0.008,0.03169 0.0276,0.05788 0.0524,0.08682 l -0.0593,0.03996 c -0.006,-0.0096 -0.0455,-0.04547 -0.0482,-0.107487 m 0.27009,-0.144694 c -0.008,0.04272 0.0152,0.141938 0.0648,0.177767 l -0.0772,0.0565 c -0.0345,-0.03583 -0.0441,-0.0813 -0.0441,-0.114377 0,-0.02894 0.0276,-0.106109 0.0565,-0.119889 m 0.13092,0.253559 c 0,0.02205 -0.0303,0.04823 -0.0593,0.04823 -0.0344,0 -0.0579,-0.04134 -0.062,-0.04272 0.0138,-0.0055 0.051,-0.04272 0.0758,-0.04272 0.0358,0 0.0455,0.01929 0.0455,0.03721 m 0.30868,-0.06063 c -0.0799,-0.05512 -0.20395,-0.05099 -0.26459,-0.139182 0.0345,-0.02205 0.0496,-0.06477 0.0455,-0.08819 0.0606,0 0.17363,0.07304 0.19568,0.08819 0.0262,0.01653 0.0372,0.02756 0.0703,0.04961 -0.0207,0.01516 -0.0441,0.0441 -0.0469,0.08957 m 0,-0.283876 c 0.0648,0 0.0896,0.03307 0.0896,0.05374 0.001,0.0096 0.001,0.03169 0.001,0.03169 0.008,0.02894 0.0537,0.04547 0.0675,0.08819 -0.0207,-0.0083 -0.0785,-0.0041 -0.1006,0.01102 -0.0262,-0.02205 -0.04,-0.03583 -0.0744,-0.07717 0,0 -0.0165,-0.02205 -0.022,-0.04272 0.0165,-0.0041 0.0344,-0.04134 0.0386,-0.06477 m 0.17502,0.151584 c 0,-0.02343 0.0234,-0.07304 0.0593,-0.07304 0.0579,0 0.0496,0.07993 0.13229,0.07993 0.0455,0 0.0675,-0.0055 0.0992,-0.0083 0,0 0.0703,-0.0055 0.0841,-0.0055 0.0207,0 0.0744,0.0096 0.0744,0.05788 0,0.01654 0,0.06339 -0.0289,0.06339 -0.0413,-0.0014 -0.0703,-0.0083 -0.12816,-0.0083 -0.0579,0 -0.14332,0.02343 -0.16399,0.02343 -0.14469,0 -0.13091,-0.108865 -0.12815,-0.129536 m 0.23564,-0.199816 c 0.051,0.01102 0.10197,-0.03583 0.10335,-0.04961 0.0744,0.02756 0.0799,0.106109 0.0799,0.136426 0,0.02894 -0.0427,0.06477 -0.0841,0.06477 -0.0786,0 -0.10198,-0.103352 -0.0992,-0.151584 m 0.22324,-0.337619 c 0,0 0.2384,-0.136426 0.50574,-0.14056 0.18466,0.03169 0.2136,0.209462 0.2136,0.220486 -0.17639,-0.09646 -0.23565,-0.09922 -0.30868,-0.108865 -0.10749,-0.01516 -0.41066,0.02894 -0.41066,0.02894 m -0.41203,0.02618 c -0.20532,-0.114377 -0.41341,-0.152962 -0.39274,-0.152962 0,0 0.41066,-0.09095 0.87092,-0.183279 0.0854,-0.01654 0.11989,0.14056 0.113,0.144694 -0.0923,0.01653 -0.46577,0.0055 -0.59118,0.191547 m -0.57464,0.125402 c 0,0 -0.0634,-0.12678 -0.0758,-0.14056 0.0344,-0.0014 0.0923,-0.02756 0.17777,-0.05374 0.0841,-0.02618 0.2191,0.09095 0.2191,0.09095 -0.0909,0.04685 -0.28663,0.08268 -0.32108,0.103353 m -0.21635,-0.170877 c -0.0207,0 -0.226,-0.130914 -0.23289,-0.14056 0.0868,-0.0096 0.49334,-0.07166 0.49334,-0.06477 -0.0537,0.100596 -0.10198,0.186035 -0.26045,0.205327 m -0.26458,0.276986 -0.56224,0.173633 c -0.04,0.02618 -0.13781,0.07166 -0.25494,0.0689 l -0.0992,-0.0069 c -0.051,0.05512 -0.15572,0.107487 -0.21222,0.107487 -0.0606,0 -0.12264,-0.01654 -0.14331,-0.01654 -0.0469,0.05512 -0.11438,0.08544 -0.18466,0.08544 -0.0138,0 -0.0551,-0.01102 -0.0579,-0.03169 -0.12953,0.135047 -0.26182,0.133669 -0.33762,0.137803 -0.073,0 -0.17363,-0.02205 -0.20946,-0.106109 0.18052,-0.07579 0.1571,-0.130913 0.23702,-0.257693 0.10749,0.09233 0.22325,0.101975 0.22325,0.101975 0.073,-0.0041 0.15158,-0.05237 0.2067,-0.148828 0,0 0.49058,-0.0096 0.91502,-0.111621 0.22738,-0.05374 0.6904,-0.21084 0.70142,-0.214974 0.0813,-0.02618 0.12265,0.124023 0.12954,0.130913 -0.15297,0.0096 -0.33073,0.08819 -0.3514,0.08819 m -2.1966,0.367936 c -0.14745,0 -0.15709,-0.06201 -0.15709,-0.06201 -0.011,0.0248 -0.0965,0.139181 -0.2701,0.139181 -0.34313,0 -0.50987,-0.389985 -0.50987,-0.487825 0,-0.04272 0.0165,-0.07441 0.0427,-0.0813 0.022,0.03859 0.0896,0.203949 0.1819,0.203949 0.16261,0 0.20946,-0.129535 0.25631,-0.172254 0.0124,-0.0096 0.062,-0.0069 0.13505,-0.0041 -0.0193,0.04134 -0.073,0.195681 -0.17088,0.257693 0.14745,0.0028 0.50161,0 0.70005,-0.0041 -0.0469,0.07855 -0.0854,0.21084 -0.20809,0.21084 m -0.13367,-0.516765 c 0.0248,0 0.30455,-0.01654 0.31144,-0.0124 0.008,0.07304 0.003,0.175011 -0.16123,0.206706 -0.17777,0 -0.23013,0.0083 -0.24529,0.0028 0.0469,-0.04134 0.0675,-0.106106 0.0951,-0.197056 m 0.46854,-0.03032 c 0.0152,0.0014 1.3615,-0.162609 1.36839,-0.163987 -0.0234,0.05237 -0.1254,0.253559 -0.3955,0.292144 -0.0317,0.01102 -0.98667,0.09233 -1.07211,0.09371 0.0717,-0.05512 0.0896,-0.148828 0.0992,-0.221864 m 0.45475,-0.410655 c 0.0551,-0.0055 0.98668,-0.09646 0.98668,-0.09646 0,0 -0.11989,0.257693 -0.2701,0.268717 0,0 -0.74138,0.09095 -0.82682,0.101975 0.0331,-0.06339 0.0758,-0.190169 0.11024,-0.274229 m 1.36977,0.187413 c -0.0345,0.07993 -0.0482,0.205328 -0.2508,0.259071 -0.0854,0.01929 -0.23427,0.04134 -0.23427,0.04134 0.0675,-0.06615 0.1254,-0.143316 0.15847,-0.248047 z m 0.48231,-0.388607 c 0.0276,0 0.0923,-0.0041 0.11438,0.0014 -0.11713,0.256315 -0.60496,0.290766 -0.62701,0.299034 l -0.35829,0.0441 c 0.0427,-0.08682 0.0689,-0.152963 0.1006,-0.250804 0.006,0.01516 0.6339,-0.09508 0.77032,-0.09371 m 0.23427,-0.01791 c 0,0 0.24253,-0.184657 0.57189,-0.238401 l 0.0992,0.06477 c 0,0 -0.38447,0.139182 -0.41892,0.173633 0,0 0.11576,0.05926 0.14745,0.198437 -0.28112,0.02756 -0.43133,0.08819 -0.46991,0.101975 z m 0.76619,-0.09508 0.17777,0.151584 c -0.14745,0.03445 -0.33073,0.09646 -0.3955,0.112999 0.004,-0.0069 0.006,-0.08819 -0.0813,-0.140559 -0.0234,-0.0028 0.29904,-0.124024 0.29904,-0.124024 m 0.11162,-0.163986 c 0.11024,-0.108865 0.23702,0.0014 0.23702,0.0014 -0.0937,0.03445 -0.11437,0.132292 -0.1502,0.194304 0,0 -0.13781,-0.112999 -0.15159,-0.114377 0.007,-0.01654 0.051,-0.06201 0.0648,-0.0813 m 0.52228,0.518142 c -0.0345,0.0069 -0.19155,0.0096 -0.30042,0.09508 0,0 -0.0427,-0.117133 -0.0799,-0.159852 l 0.31143,-0.110243 c 0.008,0.05099 0.0689,0.175011 0.0689,0.175011 m 0.14193,-0.595313 c -0.0138,0.0055 -0.0455,0.103353 -0.0661,0.205328 -0.18052,0.01929 -0.43684,0.169499 -0.42719,0.151584 0.0716,-0.126779 0.15847,-0.265961 0.15847,-0.265961 0.10887,-0.12678 0.3266,-0.103353 0.33486,-0.09095 m 0.23565,0.489204 c -0.0344,0.0014 -0.18604,0.07855 -0.26045,0.09646 -0.003,-0.01378 -0.0413,-0.163987 -0.0882,-0.20395 0,0 0.15571,-0.122645 0.25631,-0.07166 0.01,0.121267 0.0496,0.129535 0.0923,0.179145 m -0.1447,-0.496094 c 0.20809,-0.0813 0.44236,-0.04961 0.46854,-0.03996 -0.0262,0.03307 -0.0317,0.05237 -0.0331,0.07855 -0.022,0.0014 -0.3197,0.01378 -0.49609,0.155719 -0.001,-0.0124 0.0482,-0.09646 0.0606,-0.194304 m 0.64079,0.158474 c -0.0152,0.08682 0.0152,0.110243 0.01,0.122646 -0.19431,0.0014 -0.41066,0.170877 -0.43271,0.180523 -0.0124,-0.103353 -0.0634,-0.169499 -0.0606,-0.172255 0.10335,-0.06201 0.21497,-0.08957 0.2508,-0.100597 0.1006,-0.03032 0.23289,-0.02756 0.23289,-0.03032 m -0.113,-0.19706 c 0.0289,0 0.38172,-0.03583 0.50712,-0.0028 -0.0193,0.04134 -0.13367,0.15434 -0.13367,0.15434 -0.0358,-0.0096 -0.13642,-0.111621 -0.37758,-0.07304 0,0 0.0165,-0.03445 0.004,-0.07855 m -0.0248,-0.361045 c 0.78548,-0.340376 1.61782,-0.891591 1.7005,-0.952225 0,0 -0.11713,0.347266 -0.41479,0.553972 -0.15296,0.107486 -0.52641,0.356912 -0.9288,0.431325 -0.0965,0.01929 -0.25494,-0.0014 -0.35691,-0.03307 m 0.89297,-0.609093 h -10e-4 z m -1.76251,0.457509 c 0.44648,-0.18328 1.1355,-0.607716 1.13412,-0.607716 -0.0234,-0.04823 -0.0496,-0.09784 -0.0496,-0.09784 l 0.34865,-0.212218 c 0.0634,-0.03996 0.30317,-0.165365 0.49196,-0.129535 0.006,0.17501 -0.11025,0.325216 -0.17915,0.370692 -0.0703,0.04548 -0.68213,0.423058 -0.85438,0.502984 -0.17088,0.0813 -0.48232,0.270095 -0.89159,0.173633 m -0.65319,-0.32384 c 0.18052,-0.07855 1.90858,-1.10243 2.00229,-1.167198 0.0276,0.03721 0.0799,0.311437 -0.0648,0.395497 -0.0262,0.01653 -0.28801,0.192925 -0.32797,0.213596 0.0593,-0.139182 0.0827,-0.259071 0.073,-0.286632 -0.0703,0.05237 -0.16398,0.106109 -0.21773,0.141938 0,0.02067 -0.0165,0.22462 -0.11162,0.285254 -0.16399,0.106109 -0.7028,0.394119 -0.82269,0.440972 -0.19292,0.07855 -0.47818,0.04272 -0.53054,-0.02343 m -0.2949,-0.239779 c -0.56913,0.172255 -0.78273,-0.03721 -0.78273,-0.03721 0.51677,-0.263205 1.03629,-0.545703 1.04318,-0.545703 0.0358,0.05374 0.11437,0.135048 0.21221,0.09233 0.10887,-0.04685 0.81994,-0.438216 0.81994,-0.438216 0,0 0.0276,0.09922 0.11989,0.159852 l -0.51126,0.312815 c -0.13367,0.07579 -0.65043,0.380338 -0.90123,0.45613 m -0.96601,-0.380338 c -0.20533,0.05788 -0.53468,0.06615 -0.61598,0.0041 1.3367,-0.577398 2.05741,-0.983919 2.28203,-1.129991 0,0 -0.0744,0.144694 0.0469,0.297656 0,0 -1.36288,0.746897 -1.7129,0.828201 m -0.96462,-0.186035 c 0.3762,-0.130914 1.14652,-0.49196 1.18924,-0.51263 0.006,0.0014 0.0868,0.09646 0.11714,0.128157 0,0 -0.8158,0.366558 -0.89986,0.398253 -0.0772,0.02894 -0.30179,0.113 -0.40652,-0.01378 m 1.09002,-1.462099 c 0.11438,-0.112999 0.52228,-0.35829 0.59256,-0.414789 0.001,0.0248 0.006,0.06201 0.01,0.103353 0,0 0.48645,-0.205328 0.50574,-0.245291 0,0 0.0496,0.166743 0.0648,0.239779 -0.0744,0.03996 -0.74,0.383094 -1.17271,0.316948 m 0.58842,-0.919151 c 0.003,0.05512 -0.0289,0.09784 -0.0289,0.13367 0.0579,-0.01653 0.63389,-0.28112 0.69866,-0.305925 0.0165,0.07717 0.0441,0.13367 0.10611,0.191548 -0.0207,0.0055 -0.90537,0.366558 -0.92604,0.370692 -0.21222,0.04823 -0.52366,0.01378 -0.58016,-0.03445 0.1006,-0.03996 0.69729,-0.329351 0.73036,-0.355534 m -0.7524,0.859896 c -0.0937,0.06477 -0.42031,0.293523 -0.42168,0.480936 -0.01,0.01378 -1.07625,0.44924 -1.61506,0.44924 -0.11714,0 -0.339,-0.0041 -0.48094,-0.110243 1.05144,-0.195681 2.48047,-0.818554 2.53421,-0.851627 -0.003,0.01378 -0.0165,0.0248 -0.0165,0.03169 m -1.51308,-0.582907 c 0.29214,-0.0441 1.418,-0.401009 1.45659,-0.418923 0.003,0.02343 0.0675,0.25218 0.0648,0.275607 -0.50022,0.194303 -1.15893,0.42857 -1.52135,0.143316 m -1.14377,0.635276 c -10e-4,-0.01516 0.15434,-0.213596 0.0868,-0.369315 l 0.82544,-0.201193 c 0.0303,-0.0069 0.0827,0.214974 0.26321,0.303168 -0.001,0.0096 -1.17547,0.26734 -1.17547,0.26734 m -1.05971,0.107487 c -0.52779,0 -0.76206,-0.245291 -0.791,-0.303169 0.78962,0.05788 1.59853,-0.122645 1.59853,-0.122645 0,0 -0.10887,0.176389 0.006,0.356912 -0.0124,0.0028 -0.46164,0.0689 -0.81304,0.0689 m -1.13964,-0.895725 c 0.38034,0.06615 1.16444,0.0124 1.20854,0.0083 0.022,0.146072 0.17363,0.286632 0.17363,0.286632 -0.17225,0.01929 -0.77721,0.04685 -0.77721,0.04685 -0.28663,0 -0.53606,-0.08268 -0.60496,-0.341753 M 115.42377,42.6255 c 0.41617,0.07579 1.04042,0.03721 1.04042,0.03721 -0.011,0.20395 0.19981,0.30179 0.23151,0.322461 -0.34865,-0.01102 -1.0666,0.05099 -1.27193,-0.359668 m 0.0992,0.361046 z m -0.13918,-1.01148 c 0.2191,0.03721 0.60633,0.03445 0.68075,0.0441 0.0358,0.146072 0.073,0.250803 0.16123,0.343132 0,0 -0.73312,-0.03169 -0.84198,-0.387229 m 1.6564,-0.615983 c 0.0496,0.184657 0.0689,0.27423 0.1943,0.367936 -0.14056,0.02343 -0.40239,0.02205 -0.87505,0.02205 -0.47267,0 -0.86128,-0.22462 -0.94947,-0.401009 0.79513,0.09371 1.32429,0.03307 1.63022,0.01102 m 0.51538,0.992187 c -0.0289,0.0028 -0.35967,0.01791 -0.82131,0.01791 -0.23289,0 -0.4079,-0.220486 -0.42168,-0.337619 0.36518,0.01929 0.85714,0.01103 0.94534,0.01516 0.0593,0.163987 0.29765,0.304546 0.29765,0.304546 m 0.9164,-1.149284 c -0.11438,0.07717 -0.28663,0.341754 -0.28663,0.341754 0.36518,-0.0069 1.80109,-0.04685 1.80109,-0.04685 0,0 -0.18465,0.121267 -0.20808,0.155718 -0.2012,0.01516 -1.5062,0.06615 -1.5062,0.06615 -0.37758,0 -0.91226,-0.141938 -0.99494,-0.385851 0,0 0.97152,-0.09784 1.19476,-0.130914 m 1.54754,-0.07717 c 0.0193,0.07166 0.0427,0.137804 0.11851,0.201194 0,0 -1.33394,0.05236 -1.35186,0.05099 -0.0138,-0.03032 -0.0717,-0.122645 -0.10886,-0.188791 0.10335,-0.03169 1.34221,-0.06339 1.34221,-0.06339 m 1.28984,-0.05099 c 0.0124,0.117133 0.01,0.14056 0.0813,0.195682 -0.15296,0.0041 -0.74827,0.03169 -1.01423,0.04134 -0.0854,-0.07855 -0.0937,-0.130913 -0.12265,-0.202571 0.0207,0 0.98254,-0.0441 1.05558,-0.03445 m -0.0882,1.231966 c -10e-4,0.0096 0.14745,0.124023 0.22325,0.198438 -0.0482,0.01378 -0.89711,0.191547 -1.11346,-0.100597 0.23289,-0.02343 0.81993,-0.09095 0.89021,-0.09784 m -1.15204,-0.194303 c -0.14469,-0.01516 -0.39687,-0.108865 -0.49471,-0.187413 0.15847,0.0096 1.23886,-0.121268 1.23886,-0.121268 0.0138,0.01791 -0.0124,0.136426 0.006,0.241157 0,0 -0.54984,0.08957 -0.74965,0.06752 m -0.77446,0.410655 0.88332,-0.09508 c -0.0331,0.07441 0.0909,0.232888 0.113,0.276985 -0.13505,0.0248 -0.9853,0.129536 -1.00735,0.118511 0.001,-0.0083 0.0152,-0.125401 0.011,-0.300412 m -0.16537,-0.344509 c 0,0 -0.19155,0.05374 -0.92742,0.05926 0,0 0.17639,-0.235644 0.19706,-0.234266 0.29352,0.0028 1.05558,-0.06339 1.05558,-0.06339 -0.0593,0.07855 -0.14332,0.221864 -0.32522,0.238401 m -1.18373,0.425813 c 0.51263,0.0441 1.21956,-0.07166 1.21956,-0.07166 -0.0207,0.07717 -0.051,0.158475 -0.0606,0.304547 -0.19844,0.02205 -0.87919,0.168121 -1.15893,-0.232889 m 0.54294,0.496094 c 0,0 0.0841,0.148828 0.28801,0.237023 0,0.0069 -0.98116,0.157096 -1.00459,0.155718 -0.15434,0.01378 -0.27698,-0.209462 -0.28112,-0.265961 z m -0.97289,-1.063845 c 0.28939,0.01791 0.70004,-0.02618 0.75379,-0.03032 -0.0221,0.01378 -0.12265,0.124024 -0.18466,0.235645 0,0 -0.50574,0.0041 -0.56913,-0.205328 m 0.11438,0.578776 c -0.23152,0.184657 -0.226,0.307302 -0.2453,0.341754 0,0 -0.2632,0.02067 -0.34037,0.01653 -0.20533,-0.0441 -0.26458,-0.213596 -0.30179,-0.325217 0.12264,0.01103 0.82407,-0.02756 0.88746,-0.03307 m 4.69497,-1.535134 c -0.008,0.05512 0,0.165364 0,0.190169 -0.13642,0.0069 -0.59807,-0.0083 -0.68764,-0.0041 l -0.19292,-0.199815 c 0.0648,0 0.82682,0.0041 0.88056,0.01378 m 0.11713,-0.0028 c 0.0758,0.0014 1.2361,0.01102 2.00505,0.698665 -0.0358,0.02067 -0.17777,0.06201 -0.20257,0.04134 -0.69591,-0.542947 -1.80523,-0.545703 -1.80799,-0.545703 -0.022,0 0.006,-0.194303 0.006,-0.194303 m 2.34542,1.040418 c 0.0289,0.0248 0.30179,0.286632 0.37207,0.383095 l -0.24943,-0.04134 c -0.0661,-0.06201 -0.53743,-0.564996 -0.55259,-0.571886 l 0.15847,-0.04823 c 0.0427,0.04134 0.27148,0.278364 0.27148,0.278364 m 1.16306,1.322916 c -0.008,0.0069 -0.0799,0.04961 -0.15158,0.06615 -0.0386,-0.06201 -0.72072,-0.866786 -0.78824,-0.935687 l 0.23013,0.02894 c 0.12265,0.146072 0.51125,0.59669 0.70969,0.840603 m 0.29903,2.109777 c 0.0152,0.0041 0.0634,0.01929 0.16399,0.04134 -0.16674,0.115755 -0.20533,0.292144 -0.21911,0.326595 0.26872,0.02067 0.45751,-0.09922 0.50161,-0.135048 l 0.0524,0.0565 c -0.0427,0.08406 -0.26045,0.183279 -0.39411,0.201193 -0.13092,0.01791 -0.25908,0.01102 -0.35692,-0.03721 0.0413,-0.14056 0.14056,-0.304546 0.25218,-0.453374 m 0.97152,-0.764812 -0.14331,0.125402 c 0,0 -0.42031,-0.225998 -0.83923,-0.77997 l -0.0427,-0.314192 c 0,0 0.4327,0.587044 1.02526,0.96876 m -0.44097,-1.101052 c 0.42719,0 1.14239,0.36518 1.34634,0.56224 -0.14607,-0.07304 -0.83095,-0.387229 -1.33807,-0.42168 -0.14745,-0.0096 -0.27837,0.05512 -0.27837,0.05512 -0.0579,-0.06063 -0.0813,-0.07855 -0.13504,-0.129536 0,0 0.1378,-0.06615 0.40514,-0.06615 m 0.42306,-0.370692 c 0.38309,0 0.90123,0.197059 1.01975,0.270095 -0.32798,-0.06201 -0.63252,-0.148827 -0.94947,-0.114377 0.0537,0.0689 0.0827,0.139182 0.10335,0.209462 -0.0937,-0.03996 -0.20257,-0.07579 -0.34038,-0.111621 -0.11851,-0.03032 -0.21221,-0.12678 -0.22737,-0.169499 0.10197,-0.05925 0.24391,-0.08406 0.39412,-0.08406 m 2.13044,0.43546 c -0.20119,-0.16123 -0.81166,-0.392741 -1.24161,-0.446484 -0.006,-0.02756 -0.0221,-0.05512 -0.0276,-0.06752 0.44097,-0.01378 1.02939,0.216352 1.09554,0.245291 0.17225,0.07855 0.19568,0.175011 0.17363,0.268717 m -0.63114,0.297656 c -0.0234,-0.05788 -0.073,-0.24529 -0.34175,-0.399631 0.56499,0.175011 0.99908,0.515387 1.13137,0.63252 0.30179,0.270095 0.45475,0.672483 0.44786,0.672483 -0.04,-0.03721 -0.6146,-0.753787 -1.23748,-0.905372 m 0.49196,1.540647 c 0,0 0.19155,-0.0028 0.25907,-0.195682 0.20533,0.09095 0.43409,0.187414 0.58154,0.350022 -0.01,0.0055 -0.14194,0.04961 -0.30455,0.03307 -0.0965,-0.01102 -0.30868,-0.07304 -0.53606,-0.187413 m -1.68809,-0.902615 c -0.0772,-0.05512 -0.80064,-0.628385 -0.9164,-0.728982 0.0193,-0.0041 0.0951,-0.01929 0.18603,-0.0069 0.24254,0.03445 0.54295,0.275608 1.14929,0.672483 -0.073,0.0055 -0.26045,0.02205 -0.41892,0.06339 m 1.82176,0.653191 c 0,0 -0.19981,0.206705 -0.47267,0.111621 -0.13367,-0.04548 -1.05971,-0.563618 -1.21267,-0.649056 0.0248,0.0014 0.26596,0.01378 0.39688,-0.08544 0.28663,0.179145 1.00872,0.526411 1.28846,0.622874 m -1.72392,-1.604037 c -0.01,-0.04134 -0.0345,-0.103353 -0.0717,-0.172255 0,0 0.63527,0.146072 0.8723,0.369315 0.062,0.04547 0.14882,0.16812 0.12678,0.250802 0,0 -0.58016,-0.326595 -0.92742,-0.447862 m 1.45383,0.975651 c 0.10748,0.06477 0.18603,0.270096 0.15709,0.34451 -0.001,0 -1.08865,-0.585667 -1.09829,-0.592557 0,0 0.23288,-0.119889 0.24666,-0.119889 0.19844,0.07993 0.63804,0.333485 0.69454,0.367936 m -1.39458,2.483225 c -0.0165,-0.06615 0.15985,-0.438216 0.15985,-0.438216 0.0124,0.0014 0.0496,0.06752 0.0896,0.122645 -0.0744,0.0441 -0.0923,0.169499 -0.0854,0.186035 0.0841,0.0441 0.20257,0.0124 0.2825,-0.0069 l 0.008,0.09508 c -0.13229,0.03858 -0.40238,0.07166 -0.45475,0.04134 m -0.0193,0.361046 c 0.011,-0.04134 0.091,-0.209462 0.24667,-0.26734 l 0.11024,0.01929 c -0.0455,0.03858 -0.15985,0.112999 -0.18603,0.192925 0,0 0.0648,0.0813 0.25493,0.06615 l -0.0537,0.101974 c -0.18466,-0.0069 -0.3073,-0.05512 -0.37207,-0.112999 m -0.47405,-0.203949 c 0.0413,-0.01516 0.11162,-0.03169 0.12678,-0.03169 -0.0345,0.05926 -0.0772,0.206706 -0.0841,0.311437 0.0854,0.07028 0.3638,0.0083 0.3638,0.0083 0.0496,0.0441 0.11438,0.04548 0.12678,0.05512 -0.0661,0.04823 -0.19292,0.103353 -0.30454,0.103353 -0.0427,0 -0.17639,0.01103 -0.35002,-0.07304 -0.006,-0.254937 0.0923,-0.330729 0.12126,-0.373448 m 0.13781,-0.875054 c 0.0717,0.01516 0.18465,0.04272 0.18465,0.04272 -0.16536,0.08682 -0.31281,0.278363 -0.33072,0.418923 0.0951,0.04961 0.36793,0.135048 0.4327,0.141938 -0.10611,0.124024 -0.4327,0.08406 -0.59669,-0.07579 0.0289,-0.28112 0.22324,-0.453375 0.31006,-0.527788 m -0.93707,0.114377 c -0.0262,-0.04134 0.1006,-0.447863 0.15848,-0.490582 0.0179,0 0.1061,-0.0083 0.12953,0.0014 -0.11851,0.198438 -0.14056,0.241157 -0.17225,0.412034 0,0 0.39412,-0.0083 0.51814,-0.05374 -0.0152,0.03859 -0.0524,0.08406 -0.12265,0.15434 0,0 -0.48644,0.01929 -0.51125,-0.02343 m -0.30454,-0.04134 c 0.0179,0 0.1061,-0.0083 0.12815,0.0014 -0.11851,0.198437 -0.13918,0.239779 -0.17087,0.410655 0,0 0.39411,-0.0069 0.51814,-0.05374 -0.0152,0.03858 -0.0524,0.08544 -0.12265,0.155718 0,0 -0.48644,0.01791 -0.51125,-0.02343 -0.0262,-0.04134 0.1006,-0.44924 0.15848,-0.490581 m -1.38631,-1.595765 c 0,0 0.47267,-0.297657 0.51401,-0.318327 0.0579,0.08819 0.14745,0.202571 0.13091,0.214974 -0.0689,0.04823 -0.23564,0.169498 -0.50574,0.31557 -0.0717,0.03445 -0.32797,0.135048 -0.47404,0.13367 0.091,-0.152962 0.20119,-0.248047 0.33486,-0.345887 m -0.33624,-0.42857 0.11575,0.205327 c -0.15158,0.08819 -0.69177,0.438217 -1.04731,0.413412 0.19569,-0.301791 0.74552,-0.540191 0.93156,-0.618739 m -2.74092,-0.26045 c 0.30041,-0.09508 1.10519,-0.471289 1.57923,-0.741384 0,0.0041 0.0344,0.100597 0.0841,0.216352 0.0165,0.03858 -1.10381,0.726226 -1.66329,0.525032 m 1.38906,0.08682 c 0,0 0.4203,-0.259072 0.49058,-0.304547 0,0 -0.20946,0.307303 -0.20119,0.336242 -0.0579,0.03032 0.87781,-0.454753 0.96876,-0.507119 0,0 -0.0551,0.217731 -0.0551,0.234267 -0.55948,0.28801 -0.49334,0.253559 -1.04042,0.531923 -0.14745,0.07441 -0.35829,0.03583 -0.37069,0.01791 -0.0152,-0.01929 0.0841,-0.214975 0.20808,-0.308681 m 2.3592,1.331185 c -0.0165,0.0055 -0.24529,0.118511 -0.40238,0.06201 0.011,-0.14745 0.051,-0.26045 0.24253,-0.380339 0,0 0.33762,-0.216352 0.45338,-0.28801 0,0 0.0248,0.11989 -0.0358,0.179145 -0.001,0.0014 -0.35967,0.225998 -0.35967,0.225998 -0.0317,0.08957 0.0303,0.161231 0.10197,0.201194 m 0.0179,1.106565 c -0.0717,0.03721 -0.5209,0.276985 -1.11484,0.223242 0.2453,-0.09233 0.66008,-0.249425 0.99633,-0.424436 -0.001,-0.0028 -0.0482,-0.06615 -0.11162,-0.101975 0.0593,-0.02756 0.49195,-0.239779 0.56086,-0.272851 0.0675,-0.03445 0.23013,0.05926 0.23013,0.05926 -0.0386,0.02067 -0.40928,0.221864 -0.40928,0.221864 0.008,0.02894 0.006,0.213596 -0.15158,0.294901 m 1.8135,-1.794206 c 0,0 0.073,-0.07304 0.15296,-0.132292 0.73725,0.518143 1.44694,0.811665 2.11253,1.069358 0.0193,0.0083 0.0758,0.110243 0.14883,0.169499 -0.0276,0.0096 -0.21773,0.05788 -0.23427,0.05237 -0.72622,-0.28112 -1.64124,-0.735872 -2.18005,-1.15893 m 1.02112,2.356445 c 0.0248,-0.169498 0.0689,-0.316949 0.0882,-0.367936 0,0 0.1254,-0.05926 0.11851,-0.04685 -0.0799,0.165364 -0.0648,0.337619 -0.0648,0.337619 0,0 0.12402,0.04547 0.33211,0.04272 -0.008,0.03583 -0.13643,0.345888 -0.13367,0.388607 0.011,0.01929 0.25218,0.01378 0.25218,0.01378 0.0165,-0.0028 -0.0317,0.103352 -0.0317,0.103352 0,0 -0.21773,0.03307 -0.36243,-0.04134 0.0358,-0.172256 0.0868,-0.322462 0.10887,-0.381717 -0.13919,-0.03032 -0.27286,-0.01516 -0.30731,-0.04823 m -0.28387,-4.528233 c 0.0551,-0.104731 0.27698,-0.09371 0.27698,-0.09371 0.46165,0 1.06936,0.300412 1.3367,0.525032 0.0882,0.07028 0.0386,0.173633 0.0317,0.175011 -0.0289,-0.03032 -0.44373,-0.395497 -0.79926,-0.458887 -0.008,0.01516 -0.0138,0.06339 0.003,0.110244 -0.13505,-0.03721 -0.853,-0.250803 -0.84887,-0.257694 m 0.87368,-0.438216 c 0.6835,0 1.0101,0.34451 1.11759,0.511253 -0.22876,-0.135048 -0.58291,-0.241157 -0.86955,-0.312815 -0.27285,-0.0689 -0.57188,-0.112999 -0.6711,-0.13367 0,0 0.15021,-0.06477 0.42306,-0.06477 m 1.58474,1.260905 c -0.0234,-0.0083 -0.21084,-0.107487 -0.19568,-0.234266 -0.0262,-0.02067 -0.30868,-0.139182 -0.43133,-0.230133 -0.0345,-0.02618 -0.10335,-0.09784 -0.13091,-0.208083 0.41617,0.201193 0.61323,0.366558 0.75792,0.494715 -0.0165,0.04685 -0.0289,0.13367 0,0.177767 m -0.19017,-0.982541 c 0.26045,0.136426 0.40652,0.545703 0.47129,0.770323 -0.25907,-0.256315 -0.62149,-0.485069 -0.62149,-0.485069 l 0.10886,-0.13367 c -0.0234,-0.01516 -0.21773,-0.157096 -0.29628,-0.199816 0.011,-0.0069 0.17777,-0.0041 0.33762,0.04823 m -0.21634,-0.784104 c 0.19706,0.07717 0.54845,0.423058 0.53467,0.664215 -0.0303,-0.03583 -0.35966,-0.315571 -0.55397,-0.413412 z m 0.70969,-0.270095 c 0.0386,0.06339 0.073,0.122645 0.10473,0.199815 l -0.0248,0.254937 c 0,0.08131 -0.004,0.19017 0.006,0.279742 -0.0524,-0.08957 -0.21636,-0.261827 -0.28664,-0.308681 0.0193,-0.07579 0.0868,-0.32246 0.2012,-0.425813 m 0.19155,1.146528 c 0.0386,0.248046 -0.0524,0.5898 -0.0579,0.5898 0.0138,-0.212218 -0.18466,-0.675239 -0.28388,-0.751031 0.12265,-0.07166 0.23427,-0.177767 0.25494,-0.190169 0.0372,0.04685 0.0689,0.250803 0.0868,0.3514 m 0.64905,-0.412034 c 0.0138,0.05788 0.0303,0.239779 0.0262,0.347266 -0.01,0.276985 -0.22599,0.66008 -0.22462,0.657324 0.11163,-0.511252 -0.022,-0.957737 -0.022,-0.957737 0.003,0 0.14882,0.0083 0.22048,-0.04685 m 0.89159,0.285254 c -0.0179,0.06477 -0.19981,0.238401 -0.47266,0.497472 0.0193,-0.02618 0.13229,-0.458887 0.52641,-0.844738 0.007,0.0028 -0.0193,0.224621 -0.0538,0.347266 m -0.55948,-0.112999 c 0,0 0.11851,-0.297657 0.69315,-0.431326 -0.73449,0.525033 -0.7152,1.153418 -0.7152,1.153418 -0.1006,-0.02894 -0.0496,-0.547081 0.022,-0.722092 m -10.73492,6.611827 c -0.0827,0 -0.14745,-0.04548 -0.14883,-0.119889 0,-0.02067 0.0124,-0.05512 0.0276,-0.07717 10e-4,0.02756 0.0262,0.128157 0.12816,0.132291 -0.022,0.02756 -0.007,0.05788 -0.007,0.06477 m -6.25354,-7.442784 c -0.006,0.0083 -0.61736,0.0014 -0.85852,-0.01516 0.0124,-0.158474 0.10336,-0.341753 0.35416,-0.341753 0,0 0.75516,0.01791 0.80615,0.01516 -0.0234,0.170877 -0.0482,0.336242 -0.30179,0.341754 m 18.73581,0.865408 c 0.0675,0.0069 0.0937,0.122645 0.0965,0.114377 0.57189,-0.959114 1.53789,-1.701877 2.30959,-2.148361 -0.0882,-0.03859 -0.18328,-0.05374 -0.26871,-0.05374 -0.31833,0 -0.57327,0.187413 -0.60083,0.199815 0.0165,0.03169 0.0124,0.253559 0.0234,0.27423 l -0.0992,0.08268 c -0.0469,-0.07028 -0.26321,-0.175011 -0.37345,-0.112999 -0.0455,0.01791 -0.452,0.312815 -0.46992,0.323839 0.0482,0.07993 0.12403,0.219108 0.1695,0.307303 l -0.14331,0.133669 c -0.0648,-0.06339 -0.27423,-0.25218 -0.45613,-0.121267 -0.0427,0.03032 -0.15572,0.114377 -0.22187,0.168121 0.5402,-0.859896 1.39596,-1.409733 2.15112,-1.725304 -0.14056,-0.05374 -0.26182,-0.06615 -0.35691,-0.06615 -0.38585,0 -0.83785,0.276986 -0.83785,0.276986 l 0.0648,0.28801 c 0,0 -0.0882,0.05374 -0.0909,0.06063 -0.0689,-0.09095 -0.17639,-0.186035 -0.32797,-0.117133 -0.0579,0.03032 -0.37069,0.250803 -0.38723,0.265961 0.0262,0.02618 0.0772,0.300413 0.1006,0.334864 -0.073,-0.02067 -0.31558,-0.165365 -0.48783,-0.01653 -0.13229,0.108865 -0.21222,0.22462 -0.37483,0.399631 0.12816,-0.347266 0.5085,-1.010102 0.85025,-1.365636 -0.15985,-0.01516 -0.38034,0.02894 -0.53605,0.173633 0.0358,0.02894 0.15571,0.216352 0.15571,0.216352 l -0.0579,0.07304 c 0,0 -0.29352,-0.150206 -0.401,-0.04548 -0.14883,0.111621 -0.2701,0.293522 -0.29628,0.327973 l 0.1819,0.276986 c 0,0 -0.23013,-0.104731 -0.30179,0.01516 -0.0717,0.121268 -0.20119,0.406522 -0.23702,0.505741 0.0703,0.04823 0.2508,0.173632 0.2508,0.173632 l -0.04,0.124024 c -0.0469,0 -0.29766,0.01378 -0.33349,0.01516 -0.011,0.03445 -0.0909,0.219108 -0.11162,0.293522 0,-0.635276 0.40239,-1.558561 0.67386,-1.991265 -0.14194,0.02205 -0.29352,0.110243 -0.40652,0.23151 -0.011,0.01102 0.073,0.219108 0.073,0.219108 0,0 -0.24943,-0.07166 -0.31144,0.01516 -0.062,0.08819 -0.15572,0.27423 -0.15572,0.27423 l 0.23702,0.192925 c 0,0 -0.0331,0.107487 -0.0331,0.114377 -0.0152,0.0069 -0.32108,-0.08682 -0.38585,0.06339 -0.0648,0.148828 -0.16812,0.507118 -0.16812,0.507118 0,0 0.28939,0.05237 0.3955,0.09371 l -0.46991,0.1378 c -0.0179,0.06615 -0.0455,0.165365 -0.0689,0.225999 0,0 -0.006,-0.09509 -0.004,-0.122646 0,-0.392741 0.20257,-1.266417 0.40928,-1.610927 -0.339,0.04823 -0.49058,0.343132 -0.52228,0.389985 0.0965,0.0441 0.21773,0.250803 0.21773,0.250803 0,0 -0.28663,-0.119889 -0.33899,0.03032 -0.0524,0.150206 -0.0868,0.26045 -0.13092,0.451997 -0.0455,0.192925 0.2384,0.446484 0.2384,0.446484 0,0 -0.30454,-0.03032 -0.32521,-0.03307 0,0 -0.0482,0.172255 -0.0772,0.199816 0,0 0.0193,-0.19706 0.007,-0.341754 0,0 0.001,-0.538813 -0.15159,-0.541569 -0.0868,-0.0014 -0.35691,0.232889 -0.44373,0.585667 -0.0634,-0.04823 -0.26871,-0.201194 -0.42857,-0.26045 -0.0124,-0.0055 -0.0179,-0.0096 -0.0317,-0.0028 -0.062,0.02618 -0.24254,0.232889 -0.28112,0.308681 -0.15985,-0.01791 -0.22738,-0.02205 -0.30592,-0.02756 -0.39964,0 -0.42306,0.09233 -0.43409,0.125402 0.003,0.05926 0.073,0.126779 0.0827,0.143316 -0.0482,-0.0124 -0.13505,-0.01654 -0.14883,-0.01516 -0.32246,0 -0.60358,0.08544 -0.60358,0.170877 0,0.03032 0.0675,0.09784 0.11713,0.155718 -0.0289,-0.0028 -0.0675,-0.0041 -0.10335,-0.0041 -0.37621,0 -0.66422,0.09233 -0.66422,0.163986 0,0.03032 0.30731,0.230133 0.32109,0.265961 -0.01,0 -0.20671,0.01103 -0.2136,0.01103 -0.0482,-0.04961 -0.0799,-0.08544 -0.1006,-0.08544 -0.25631,0 -0.35691,0.0689 -0.35691,0.111621 l 0.062,0.16123 -0.1254,0.01653 c -0.0124,-0.0124 -0.0868,-0.03858 -0.13642,-0.03858 -0.12265,0 -0.32384,0.07028 -0.39688,0.184657 0.0207,0.06201 0.14332,0.176389 0.15296,0.184657 -0.0124,0 -0.0455,-0.0028 -0.11162,-0.0028 -0.24942,0 -0.3638,0.08544 -0.39825,0.112999 -0.27699,-0.314193 -1.08038,-1.273307 -1.62884,-1.832791 -0.92604,-0.945334 -1.66054,-1.019748 -4.24849,-1.019748 -2.25585,0 -3.79788,0.201194 -5.12768,0.201194 -2.81947,0 -3.70279,-0.471289 -4.35874,-1.015614 0.11162,0.536056 0.74965,0.978407 0.99908,1.094162 0.21911,0.103353 0.69453,0.373448 1.19889,0.373448 0.39688,0 0.66835,-0.203949 0.71383,-0.199815 0,0 -0.22187,0.451996 -0.64493,0.527788 -0.5209,0.09233 -0.96049,0.223242 -1.4428,0.223242 -0.19155,0 -0.77446,0.04961 -0.88333,0.03721 0.11438,0.194303 0.35967,0.39274 1.15618,0.412033 0.81029,0 1.25401,-0.05926 1.91685,-0.176389 0.49747,-0.101975 0.69178,-0.327973 0.69178,-0.348643 0.04,0.0014 0.51952,0.01516 0.55672,0.02205 -0.0965,0.21773 -0.37069,0.458887 -0.7028,0.537435 -1.3615,0.319705 -1.86448,0.232888 -2.46393,0.15434 0.24667,0.316949 0.52366,0.406522 1.03077,0.43546 1.12173,0 1.98713,-0.344509 2.05741,-0.380338 0.0813,0.175011 0.0496,0.180523 0.16537,0.267339 -0.22738,0.137804 -1.44143,0.49885 -2.32751,0.405143 0.17364,0.300413 0.5209,0.322462 0.70418,0.355534 0.60909,0.0689 1.06522,-0.0248 1.21405,-0.0441 0.24254,-0.03583 0.46578,-0.155718 0.52503,-0.311437 0.0951,-0.0248 0.21636,-0.0689 0.21636,-0.0689 0.0882,0.205328 0.17225,0.301791 0.38447,0.418924 -0.28526,0.09509 -0.84887,0.285254 -1.5186,0.227376 0.14883,0.305925 0.82682,0.327973 1.02664,0.300413 0.35415,-0.04548 0.51814,-0.216352 0.51952,-0.336242 0.0248,-0.0069 0.0427,-0.0069 0.0703,-0.01516 0.11438,0.409278 0.76481,0.774458 1.50344,0.774458 0.0923,0 0.31006,-0.362424 0.30179,-0.373448 0,0 1.05695,-0.179145 2.37987,-0.591179 0.19844,-0.06201 0.64217,0.0028 0.64217,0.01516 -0.0703,0.04685 -2.04639,0.855762 -3.08956,0.913639 0.10473,0.129536 0.21359,0.352778 0.69315,0.42168 0.14469,0.02067 0.32659,0.0055 0.48507,0.0028 -0.0193,0.03032 -0.073,0.04272 -0.19844,0.117133 0.16812,0.187413 0.81856,0.197059 1.10243,0.07993 -0.0289,-0.0041 -0.47956,-0.03996 -0.60082,-0.128157 1.09829,-0.232889 1.93063,-0.698666 2.21864,-0.844738 0,0 0.0455,0.326595 -0.13643,0.410655 -0.28525,0.168121 -1.22232,0.55535 -1.72392,0.737251 0,0.187413 0.39825,0.451996 0.78134,0.451996 0.17915,0 0.46578,-0.03169 0.60083,-0.06752 -0.0868,0.101974 -0.12402,0.223242 -0.11576,0.293522 0.051,0.143316 0.20809,0.203949 0.52228,0.203949 0.2136,0 0.3762,-0.07579 0.53744,-0.143316 0.001,0.05926 -0.011,0.192926 -0.011,0.221864 0,0.144695 0.18604,0.155719 0.26183,0.155719 0.16123,0 0.36656,-0.04823 0.40239,-0.04823 0.0276,0 0.0331,0.03721 0.0386,0.08268 0.004,0.02067 0.0165,0.101975 0.0221,0.137804 0.0152,0.08957 0.13229,0.09371 0.23564,0.09371 0.20395,0 0.53882,-0.157096 0.64906,-0.157096 0.004,0 0.01,0 0.0138,0.0014 -0.04,0.03721 -0.073,0.106109 -0.073,0.150206 0,0.09233 0.10749,0.163986 0.25218,0.163986 0.0593,0 0.27423,-0.02067 0.28112,-0.01929 -0.0537,0.03445 -0.0744,0.0813 -0.32384,0.0813 -0.0882,0 -0.17225,-0.02618 -0.35828,-0.02618 -0.11025,0 -0.27286,0.0565 -0.45476,0.0565 -0.26045,0 -0.48231,-0.05374 -0.58566,-0.07579 -0.0386,-0.01102 -0.32522,-0.09233 -0.41066,-0.09233 -0.0317,0 -0.0469,0.0028 -0.0579,0.0055 -0.0785,-0.0565 -0.15985,-0.08957 -0.2949,-0.08957 -0.0482,-0.04685 -0.21221,-0.07442 -0.3073,-0.07855 -0.0841,-0.06063 -0.26596,-0.121267 -0.45062,-0.121267 0.0772,0.03445 0.13092,0.176389 0.1447,0.237022 0.0537,-0.01653 0.20119,0.03445 0.26871,0.09508 0.13919,-0.0055 0.23978,0.0083 0.31971,0.05788 0.0138,0.0248 0.0193,0.0441 -0.007,0.09784 -0.21498,-0.04272 -0.92191,-0.166743 -1.22646,-0.243913 l -0.011,0.115755 1.23472,0.21773 c 0.0221,-0.0441 0.37896,-0.07304 0.51125,-0.05512 0.0179,0.0028 0.04,0.0014 0.0565,0.01102 -0.0386,0.05099 -0.20946,0.09922 -0.29903,0.09922 -0.0482,0 -2.41019,0.01102 -2.41019,0.01102 -0.0207,0 -0.0262,0.09646 -0.004,0.09646 l 0.66421,0.0124 c 0,0 0.0717,-0.01378 0.1254,0.04961 l 0.30868,-0.02343 -0.062,-0.05512 c 0.0537,0.0014 1.03766,-0.02205 1.03766,-0.02205 0,0 0.0951,0.0041 0.13092,0.08819 l -2.21864,0.192926 c 0,0 -0.0524,0.414789 -0.30179,0.428569 -0.12816,0.0069 -0.24805,0.01102 -0.24805,0.01102 0.062,-0.108865 0.20395,-0.417546 0.20395,-0.417546 0,0 -0.44097,0.05237 -0.46164,0.05237 -0.0152,0.03445 -0.0758,0.146072 -0.0634,0.144694 0.073,-0.0124 0.20946,-0.01378 0.28938,-0.02618 0,0 -0.0813,0.26045 -0.25631,0.257694 -0.10887,-0.0028 -0.65319,0.01929 -0.69591,0.01791 -0.12954,-0.0069 -0.19982,-0.163987 -0.19982,-0.257693 0,-0.08131 0.0331,-0.107487 0.0799,-0.179145 -0.008,-0.05788 -0.10886,-0.130914 -0.10886,-0.130914 -0.0193,0.02067 -0.11714,0.115755 -0.11714,0.312815 0,0.152962 0.0634,0.265961 0.18052,0.367936 0,0.310059 0.2453,0.654568 0.61323,0.654568 0.14883,0 0.30455,-0.0248 0.37207,-0.07166 0,0 0.13092,0.165365 0.42444,0.165365 0.14469,0 0.27285,-0.08406 0.31557,-0.112999 0,0 0.0152,0.01653 0.0634,0.01653 0.12816,0 0.38585,-0.132291 0.48093,-0.15434 0.10887,-0.0248 0.3142,-0.06339 0.3142,-0.06339 0.0661,-0.01516 0.17501,-0.0565 0.2191,-0.06614 0.0441,-0.01102 0.13505,-0.01792 0.20533,-0.03583 0.0469,-0.01378 0.19155,-0.07166 0.27561,-0.09922 0.0413,-0.01516 0.0662,-0.01791 0.0868,-0.01791 0.0207,0 0.04,0.0096 0.0634,0.0055 0.0579,-0.03032 0.14056,-0.07166 0.17225,-0.07579 0,0 -0.0124,0.02756 0.0303,0.02894 0.0427,0.0014 0.26596,-0.09233 0.27285,-0.09646 0.0441,-0.0096 0.27561,-0.05374 0.3762,-0.07166 0.0827,-0.01929 0.37621,-0.08682 0.37621,-0.08682 0.0358,-0.0083 0.0978,0.07028 0.12127,0.08819 0.0317,0.02205 0.0978,0.03307 0.11575,0.06201 -0.0193,0.07441 -0.14883,0.0248 -0.21222,0.187413 -0.006,-0.04547 -0.0248,-0.107487 -0.12264,-0.15434 -0.0138,-0.03583 -0.0606,-0.08544 -0.14332,-0.08544 -0.11438,0 -0.14469,0.103353 -0.13642,0.132291 0.0303,-0.04272 0.0758,-0.0565 0.0978,-0.0565 0.0537,0 0.0785,0.0441 0.0882,0.07717 -0.008,0.0124 -0.0221,0.01791 -0.0221,0.06339 0,0.04823 0.0138,0.09646 0.0413,0.122645 -0.0152,0.01516 -0.0427,0.01378 -0.0524,0.01378 -0.0248,0 -0.0331,-0.08544 -0.11989,-0.08544 -0.0634,0 -0.0868,0.04823 -0.0923,0.07717 -0.008,-0.0069 -0.0262,-0.01929 -0.0317,-0.02618 0.01,-0.04961 -0.003,-0.117133 -0.13643,-0.111621 -0.004,-0.0124 -0.007,-0.02756 -0.007,-0.04961 0.007,-0.05374 0.0482,-0.08819 0.0909,-0.114377 -0.14331,0.0248 -0.17363,0.108865 -0.17363,0.175011 0,0.02756 0.0124,0.06752 0.0386,0.103352 -0.0276,-0.0028 -0.0579,-0.01929 -0.10059,-0.04134 -0.0276,-0.01378 -0.0593,-0.01378 -0.0593,-0.01378 -0.011,-0.0096 -0.0193,-0.03169 -0.0165,-0.04685 0.003,-0.02894 0.006,-0.06063 0.0524,-0.103353 -0.0786,0.02618 -0.13229,0.08957 -0.13229,0.16123 0,0.107487 0.04,0.181901 0.19844,0.230133 0.0303,0.0096 0.0744,0.02067 0.0965,0.04685 0.0138,0.01378 0.0317,0.04547 0.0317,0.06752 0,0.01516 -0.008,0.03858 -0.0331,0.03858 -0.0537,0 -0.11989,-0.04272 -0.28112,-0.135048 -0.0648,-0.03721 -0.0965,-0.101975 -0.0965,-0.151584 0.001,-0.05099 0.0152,-0.08682 0.0262,-0.09508 -0.0455,-0.0055 -0.14469,0.05099 -0.14469,0.159853 0,0.06477 0.0138,0.09646 0.0207,0.111621 -0.0331,-0.0096 -0.0634,-0.0028 -0.0634,-0.0028 -0.0179,-0.01792 -0.0675,-0.08131 -0.0675,-0.139186 0,-0.02067 -0.004,-0.05926 0.0152,-0.101975 -0.0909,0.01929 -0.113,0.117134 -0.11438,0.143316 0,0.02343 -0.01,0.09233 0.0689,0.162609 -0.0207,0.01378 -0.0221,0.04823 -0.01,0.07993 0.011,0.03583 0.04,0.09784 0.0868,0.128158 -0.0193,0.0055 -0.0386,0.0083 -0.0469,0.0083 -0.0482,0 -0.0923,-0.03721 -0.0923,-0.09233 0,-0.02618 0.003,-0.0565 0.0165,-0.07855 -0.0703,0 -0.12127,0.06477 -0.12127,0.125402 0,0.09784 0.051,0.166742 0.17088,0.15434 0.0193,0.03032 0.0482,0.03307 0.0758,0.03307 0.0441,0 0.0841,-0.03032 0.13781,-0.03169 0.0841,-0.0028 0.30316,-0.01378 0.32108,-0.01378 0.0551,0 0.0923,0.02067 0.15847,0.02067 0.0207,0 0.0593,-0.0124 0.0799,-0.02067 0.0813,-0.03721 0.24942,-0.103353 0.30179,-0.103353 0.22324,0 0.39687,-0.09233 0.4327,-0.09233 0.0193,0 0.0634,0.01378 0.0248,0.04272 -0.0551,0.03032 -0.16399,0.05512 -0.19982,0.117134 0.0799,-0.01103 0.29766,-0.03583 0.54846,-0.03583 0.0593,0 0.10198,0.0014 0.10198,0.03169 -0.022,0.01654 -0.0524,0.02894 -0.0841,0.06477 0.0138,0.01653 0.18603,-0.04961 0.26182,-0.04961 0.0317,0 0.42995,0.02343 0.791,0.02343 0.70142,0 0.68213,-0.121268 0.91915,-0.121268 0.226,0 0.56913,0.104731 1.35737,0.104731 1.8631,0 3.42304,-0.563618 5.06429,-0.715202 0.0289,-0.0028 0.37207,-0.0248 0.39825,-0.02756 0.23978,-0.02067 0.49196,-0.106109 0.6711,-0.106109 0.25356,0 0.40377,0.166743 0.452,0.206706 0.0772,0.06614 0.1819,0.191547 0.25907,0.191547 0.0427,0 0.0992,-0.03307 0.0992,-0.111621 0,-0.106109 -0.0551,-0.216352 -0.0675,-0.245291 0.0909,0.03307 0.20946,0.08268 0.20946,0.195682 0,0.04272 -0.0138,0.121267 -0.0331,0.16812 0.17226,-0.169499 0.35692,-0.35829 0.35692,-0.651812 0,-0.28112 -0.25907,-0.458887 -0.37345,-0.545703 -0.11162,-0.08544 -0.30455,-0.221864 -0.33073,-0.245291 -0.0482,-0.183279 -0.34727,-0.438216 -0.57464,-0.548459 -0.75379,-0.369314 -1.57235,-0.649056 -2.1084,-0.731738 -0.006,-0.02618 -0.006,-0.03859 -0.006,-0.07166 0,-0.212218 0.0937,-0.329352 0.26596,-0.456131 0.44373,-0.304547 2.35645,-1.5875 2.76573,-1.88929 h 0.001 c 0.073,-0.05788 0.22186,-0.199816 0.28801,-0.348644 0.16398,-0.381717 0.23702,-0.600825 0.23702,-0.600825 -0.0744,0.07441 -0.1571,0.14056 -0.20395,0.180523 -0.0331,0.241157 -0.12678,0.350022 -0.18879,0.431326 -0.007,-0.0069 -0.0386,-0.03169 -0.051,-0.04134 0.0799,-0.151584 0.0937,-0.389985 0.0923,-0.446484 -0.24942,0.07579 -0.33486,0.263205 -0.4079,0.469911 -0.0152,-0.02205 -0.062,-0.07028 -0.1006,-0.09371 0.0841,-0.261827 0.33487,-0.502984 0.55397,-0.536057"
         id="path988" />
      <path
         style="fill:#211e1e;fill-opacity:1;fill-rule:evenodd;stroke:none;stroke-width:0.352778"
         d="m 132.74426,47.393686 c 0,0 0.0276,-0.02067 0.0276,-0.03445 -0.003,-0.0248 0.01,-0.04961 -0.001,-0.06063 0,0 -0.0179,0.03307 -0.0386,0.0565 -0.0152,0.01791 -0.008,0.0083 -0.0289,0.02756 0,0.0096 0.001,0.03169 0.011,0.03858 z m 0,0"
         id="path990" />
      <path
         style="fill:#211e1e;fill-opacity:1;fill-rule:evenodd;stroke:none;stroke-width:0.352778"
         d="m 132.02216,47.266907 c 0.0138,-0.0055 0.0289,-0.01378 0.0469,-0.01378 0.0207,0 0.051,0.02067 0.051,0.05374 0,0.04134 0.0165,0.103353 0.10059,0.103353 0.04,0 0.0717,-0.01929 0.0992,-0.01929 0.0165,0 0.0331,0.0096 0.0496,0.03307 -0.0152,0.04548 -0.0813,0.09095 -0.15296,0.09095 -0.11989,0 -0.2012,-0.07855 -0.2012,-0.184657 0,-0.01516 0.003,-0.03721 0.007,-0.06339 m -0.39411,-0.03721 c -0.0262,0.0069 -0.0758,0.03583 -0.10887,0.03721 0.0165,0.0069 0.0317,0.01378 0.0661,0.01102 0.0386,-0.01654 0.0386,-0.01654 0.0717,-0.02205 l 0.14332,-0.0083 c 0.0234,0 0,0.02067 0.0234,0.02067 0.0248,0 0.0441,-0.02618 0.0689,-0.02618 0.0234,0 0.0358,0.0041 0.0593,0.02618 0,0.113 0.0234,0.301791 0.26734,0.301791 0.0978,0 0.16674,-0.05926 0.19705,-0.101975 0.0165,0.0248 0.0372,0.03996 0.0634,0.03996 0.0358,0.0014 0.0303,-0.05788 0.0675,-0.05788 0.0234,0 0.0469,0.03169 0.0717,0.03169 0.0234,0 0.0372,-0.0248 0.0606,-0.02756 0,0 -0.0124,-0.02894 -0.0482,-0.02894 -0.0496,0 -0.0648,-0.04961 -0.11713,-0.04961 -0.0234,0 -0.0469,0.01102 -0.0661,0.01102 -0.0331,0 -0.0689,-0.07717 -0.11576,-0.117134 -0.0978,-0.08268 -0.18879,-0.106108 -0.36655,-0.106108 -0.10887,0 -0.20671,0.02343 -0.23014,0.0248 -0.0689,0 -0.10197,-0.02894 -0.16812,-0.02894 -0.0344,0 -0.0744,0.0055 -0.0744,0.0055 0.0579,0.02618 0.0951,0.01378 0.13505,0.06477"
         id="path992" />
      <path
         style="fill:#211e1e;fill-opacity:1;fill-rule:evenodd;stroke:none;stroke-width:0.352778"
         d="m 131.82373,47.446052 c 0.0248,0.02756 0.0744,0.05237 0.10197,0.06477 0.0152,-0.02618 0.0386,-0.0248 0.0386,-0.05099 -0.0262,-0.01378 -0.0413,-0.04272 -0.0703,-0.04272 -0.0289,0 -0.0441,0.0124 -0.0703,0.02894"
         id="path994" />
      <path
         style="fill:#211e1e;fill-opacity:1;fill-rule:evenodd;stroke:none;stroke-width:0.352778"
         d="m 131.97118,47.473612 0.003,0.04961 c 0.011,0.0248 0.0469,0.04685 0.0606,0.07166 l 0.073,-0.0083 c -0.0937,-0.05237 -0.10198,-0.08544 -0.13643,-0.113"
         id="path996" />
      <path
         style="fill:#211e1e;fill-opacity:1;fill-rule:evenodd;stroke:none;stroke-width:0.352778"
         d="m 133.03502,47.669294 0.0152,-0.04685 -0.0565,0.02343 c -0.0441,0.02756 -0.0661,0.03583 -0.0675,0.09371 0,0.0248 0.01,0.03996 0.0124,0.05374 0.0344,-0.0689 0.051,-0.09095 0.0965,-0.124023"
         id="path998" />
    </g>
  </g>
</svg>
